<?xml version="1.0" encoding="UTF-8"?>
<svg id="Layer_1" data-name="Layer 1" xmlns="http://www.w3.org/2000/svg" width="479.2" height="428.676" viewBox="0 0 479.2 428.676">
  <g id="freepik--background-complete--inject-64">
    <path d="M138.634,397.214l-.413,4.1c2.685,8.6,8.21,10,12.961,9.4s9.863-2.3,14.046,2.7c.361.4.723,1,.826,1.9.052.8-.155,1.6-.258,2.4-.413,2.5.258,5.4,1.239,7s2.22,2.2,3.46,2.6c5.938,2.1,12.083,1.8,17.918-1.1.878-.4,1.962-1.4,1.859-3.7-.052-1.1-.413-2.1-.826-2.7l-2.272-2.8c-1.136-1.5-.723-5.3.62-5.4,4.286-.4,8.778,2.8,13.168,3.5,3.873.6,7.797-.7,11.412-3.8,3.511-3,6.816-7.8,10.534-8.3,3.408-.4,6.661,2.7,9.966,4.3,5.164,2.4,10.637,1,15.388-4.1,2.634-2.8,4.906-1.8,7.797-.6,6.558,2.8,21.74,7.4,25.922,5.1,1.911-1,10.431-7.8,11.619-10.7h-154.966v.2ZM188.104,423.714c-2.479,0-4.493-1-4.493-2.3s2.014-2.3,4.493-2.3,4.493,1,4.493,2.3-2.014,2.3-4.493,2.3ZM213.665,410.814c-2.324,0-4.183-.8-4.183-1.8s1.859-1.8,4.183-1.8,4.183.8,4.183,1.8-1.859,1.8-4.183,1.8Z" fill="#e0e0e0" stroke-width="0"/>
    <path d="M.1,176.914c7.4-15.5,26.1-24.1,43.1-21.6s31.7,14.9,39.3,30.4c8.3-4.9,19.1-5.6,28-1.6,8.9,3.9,15.6,12.4,17.5,21.9,4.6-2.7,10.6-2.8,15.3-.3,4.7,2.5,8,7.5,8.4,12.8H2.5l-2.5-41.5h0l.1-.1Z" fill="#f5f5f5" stroke-width="0"/>
    <path d="M204.6,217.014c4.9-10.2,17.7-15.4,28.1-11.6-3-24.2,12.4-49.5,34.9-57.3s49.6,2.8,61.5,24c2.5-34.7,22-61.4,40.9-77.1,23.5-19.4,46.1-18.6,46.1-18.6,0,0,1.9-19.1,21.8-29.5,12.1-6.3,33.3-7,41.3,4.3v167.4l-274.6-1.6h0Z" fill="#f5f5f5" stroke-width="0"/>
    <path d="M95.2,55.414c-.8-2.1-1.6-4.2-2.9-6s-3.2-3.3-5.4-3.5-4.6.9-5.4,3c-.3-4.7-1-9.6-3.3-13.7-2.4-4.1-6.8-7.3-11.5-7-4.5.3-8.3,3.6-10.4,7.5s-2.8,8.4-3.5,12.9c-1.7-2.1-5.3-1.4-7,.6-1.8,2-2.2,4.8-2.6,7.5h53.2l-1.1-1.2h0l-.1-.1Z" fill="#ebebeb" stroke-width="0"/>
    <path d="M314.7,98.414c-2.2-5.8-4.4-11.7-8-16.7s-9-9.1-15.1-9.8-13,2.6-15,8.4c-.9-13.2-2.8-26.7-9.4-38.2s-18.9-20.5-32.1-19.7c-12.4.8-23.1,10-29,21s-7.9,23.6-9.9,35.9c-4.7-5.8-14.7-4-19.6,1.6-4.9,5.6-6.2,13.5-7.2,20.9l147.1,1.5-1.7-5h0l-.1.1Z" fill="#f5f5f5" stroke-width="0"/>
    <path d="M412.2,139.614c-.6-1.5-1.1-3-2.1-4.3-.9-1.3-2.3-2.3-3.9-2.5s-3.3.7-3.8,2.2c-.2-3.4-.7-6.9-2.4-9.8s-4.9-5.2-8.2-5c-3.2.2-5.9,2.6-7.5,5.4-1.5,2.8-2,6.1-2.5,9.2-1.2-1.5-3.8-1-5,.4s-1.6,3.4-1.9,5.4l37.7.4-.4-1.3h0v-.1Z" fill="#ebebeb" stroke-width="0"/>
    <path d="M159.9,16.314c-.5-1.2-.9-2.5-1.7-3.6s-1.9-2-3.2-2.1c-1.3-.2-2.8.5-3.2,1.8-.2-2.8-.6-5.7-2-8.2S145.7-.186,142.9.014c-2.7.2-4.9,2.1-6.2,4.5-1.3,2.3-1.7,5-2.1,7.7-1-1.2-3.1-.8-4.2.3-1.1,1.2-1.3,2.9-1.6,4.5l31.5.3-.4-1.1h0v.1Z" fill="#f5f5f5" stroke-width="0"/>
    <path d="M149.3,134.914c-.9-2.4-1.8-4.9-3.3-6.9-1.5-2.1-3.7-3.8-6.3-4.1s-5.4,1.1-6.2,3.5c-.4-5.5-1.1-11.1-3.9-15.9-2.7-4.8-7.9-8.5-13.3-8.2-5.2.3-9.6,4.2-12.1,8.7s-3.3,9.8-4.1,14.9c-2-2.4-6.1-1.6-8.2.7s-2.6,5.6-3,8.7l61.1.6-.7-2.1h0v.1Z" fill="#f5f5f5" stroke-width="0"/>
  </g>
  <g id="freepik--Water--inject-64">
    <path d="M457.1,219.414c0,.1-97.4.3-217.4.3s-217.5-.1-217.5-.3,97.3-.3,217.5-.3,217.4.1,217.4.3Z" fill="#263238" stroke-width="0"/>
    <g>
      <path d="M400.5,243.114c0,.1-67.6.3-150.9.3s-150.9-.1-150.9-.3,67.6-.3,150.9-.3,150.9.1,150.9.3Z" fill="#263238" stroke-width="0"/>
      <path d="M251.6,249.814c0,.1-39.6.3-88.5.3s-88.5-.1-88.5-.3,39.6-.3,88.5-.3,88.5.1,88.5.3Z" fill="#263238" stroke-width="0"/>
      <path d="M338.4,260.414c0,.1-27.5.3-61.4.3s-61.4-.1-61.4-.3,27.5-.3,61.4-.3,61.4.1,61.4.3h0Z" fill="#263238" stroke-width="0"/>
      <path d="M314.4,416.714c0,.1-17.2.3-38.4.3s-38.4-.1-38.4-.3,17.2-.3,38.4-.3,38.4.1,38.4.3Z" fill="#263238" stroke-width="0"/>
      <path d="M138.7,405.314c0,.1-17.2.3-38.4.3s-38.4-.1-38.4-.3,17.2-.3,38.4-.3,38.4.1,38.4.3Z" fill="#ff725e" stroke-width="0"/>
      <path d="M392.4,402.314c0,.1-7.7.3-17.3.3s-17.3-.1-17.3-.3,7.7-.3,17.3-.3,17.3.1,17.3.3Z" fill="#ff725e" stroke-width="0"/>
      <path d="M256.3,423.214c0,.1-5.8.3-12.9.3s-12.9-.1-12.9-.3,5.8-.3,12.9-.3,12.9.1,12.9.3Z" fill="#263238" stroke-width="0"/>
    </g>
  </g>
  <g id="freepik--Sun--inject-64">
    <g>
      <g>
        <circle cx="356.3" cy="31.914" r="30" fill="#ff725e" stroke-width="0"/>
        <circle cx="356.3" cy="31.914" r="30" fill="#fff" isolation="isolate" opacity=".9" stroke-width="0"/>
      </g>
      <g>
        <circle cx="356.3" cy="31.914" r="26.8" fill="#ff725e" stroke-width="0"/>
        <circle cx="356.3" cy="31.914" r="26.8" fill="#fff" isolation="isolate" opacity=".6" stroke-width="0"/>
      </g>
      <g>
        <circle cx="356.28" cy="32.2" r="22.3" transform="translate(-.608 56.754) rotate(-9.1)" fill="#ff725e" stroke-width="0"/>
        <circle cx="356.28" cy="32.2" r="22.3" transform="translate(-.608 56.754) rotate(-9.1)" fill="#fff" isolation="isolate" opacity=".3" stroke-width="0"/>
      </g>
      <path d="M374.1,31.914c0,9.8-8,17.8-17.8,17.8s-17.8-8-17.8-17.8,8-17.8,17.8-17.8,17.8,8,17.8,17.8Z" fill="#ff725e" fill-rule="evenodd" stroke-width="0"/>
    </g>
  </g>
  <g id="freepik--Birds--inject-64">
    <g>
      <path d="M106.5,86.014s-.6-.2-1.8-.5c-1.2-.3-2.9-.5-5-.2s-4.6,1.1-6.8,2.9c-2.2,1.8-4,4.4-4.8,7.6h0l-.1.6-.2-.5c-1.2-3-3.4-5.4-5.7-6.9-2.3-1.5-4.9-2.2-7-2.3s-3.8.2-5,.5-1.8.6-1.8.5c0,0,.1,0,.4-.2s.7-.3,1.3-.5c1.2-.3,2.9-.7,5-.6,2.1.1,4.7.7,7.2,2.3,2.4,1.5,4.6,4,5.9,7.1h-.3c.8-3.2,2.7-6,4.9-7.8,2.2-1.8,4.8-2.7,6.9-2.9,2.2-.3,3.9,0,5.1.3.6.1,1,.3,1.3.4s.4.2.4.2h.1Z" fill="#263238" stroke-width="0"/>
      <path d="M156.7,61.214s-.4,0-1-.2c-.6-.1-1.6-.2-2.8,0-1.1.2-2.5.6-3.7,1.6s-2.2,2.4-2.6,4.1h0l-.1.6-.2-.5c-.7-1.6-1.8-2.9-3.1-3.8-1.3-.8-2.6-1.2-3.8-1.3-1.2,0-2.1,0-2.7.2-.6.2-1,.3-1,.3l.2-.1c.2,0,.4-.2.7-.3.6-.2,1.6-.4,2.8-.3,1.2,0,2.6.4,4,1.3,1.3.8,2.6,2.2,3.3,3.9h-.4c.4-1.8,1.5-3.3,2.8-4.3,1.2-1,2.7-1.5,3.9-1.6s2.2,0,2.8.2c.3,0,.6.2.7.2.2,0,.2.1.2.1h0v-.1Z" fill="#263238" stroke-width="0"/>
      <path d="M123.9,50.014s-.3.4-1,1.1c-.6.7-1.5,1.8-2.4,3.2-1.8,2.8-3.6,7.3-3.5,12.4v.2h-.4c-.4-2.5-1.2-4.8-2.3-6.7-1.1-1.9-2.3-3.5-3.4-4.7-1.2-1.2-2.2-2-3-2.5s-1.2-.8-1.2-.8c0,0,.1,0,.3.2.2.1.5.3.9.5.8.5,1.9,1.3,3.1,2.5s2.5,2.7,3.6,4.7c1.1,1.9,1.9,4.3,2.3,6.8h-.4v-.1c0-5.2,1.8-9.7,3.7-12.5.9-1.4,1.8-2.5,2.5-3.1.3-.3.6-.6.8-.8.2-.2.3-.2.3-.2h0l.1-.2Z" fill="#263238" stroke-width="0"/>
    </g>
  </g>
  <path d="M334.016,386.566l-.424.568c0-.284,0-.568-.085-.71-.339-.568-.762-.426-1.101-.284-.508.284-1.016.568-1.525.71-.508.284-1.016.568-1.525.852h-.085c-.424.142-.932.426-1.355.568h-.169c-.593.284-1.186.426-1.779.71-.169,0-.339,0-.424.142-1.016.284-2.033.568-2.965,1.136-4.903,1.405-9.846,2.9-14.773,4.407-.094-.047-.203-.072-.333-.04-.655.158-1.316.286-1.974.434-.067-.031-.144-.049-.242-.036-6.249.835-12.527,1.445-18.82,1.831-.639.039-.644,1.039,0,1,.214-.013.427-.031.64-.045-.43.214-.368.985.199.945.58-.041,1.158-.109,1.738-.158-.028.047-.06.092-.067.147-1.523.165-3.046.313-4.569.459-.762,0-1.609,0-2.372.284-.593,0-1.186-.142-1.779,0-.254,0-.339.426-.254.71v.284c0,.426.254.568.508.426.423,0,.762-.142,1.186-.284h2.541c1.948.994,3.981.994,6.014.852,2.287-.284,4.574-.426,6.946-.71,3.642-.333,7.334-.489,10.999-.543.024.011.04.027.068.035,2.219.666,4.435,1.275,6.739,1.557.704.086,1.411.135,2.118.166,1.305.211,2.619.327,3.941.154.195-.026.345-.148.427-.299.152-.017.305-.024.456-.043.014-.002.024-.01.037-.012.037.003.076-.004.118-.021.017-.012.034-.023.051-.035,0,0,0,0,.001,0,.83-.556,1.657-1.118,2.404-1.952.762-.852,1.525-1.845,2.372-2.413.932-.71,1.863-1.278,2.795-1.845.339-.142.678-.426,1.016-.71.085,0,.254.142.339.284.593.284,1.186.568,1.779.284.593-.284.932-1.278,1.101-2.271.254-1.136.339-2.555.339-3.833,0-.852,0-1.845-.254-2.697Z" fill="#e0e0e0" stroke-width="0"/>
  <g>
    <path d="M164.09,371.3c.887.165,1.631.287,1.651.268.125-.119,34.199-.695,59.812-1.009,16.117-.199,32.346-.452,53.392-.837l9.247-.169,3.413-1.18c4.373-1.515,6.929-2.381,8.036-2.726,1.387-.433,9.987-3.433,11.449-3.994,2.094-.803,3.085-.939,5.284-.718,11.161,1.124,21.522,2.253,23.889,2.607,2.499.37,13.873.441,16.361.1,2.878-.393,2.977-.452,2.078-1.253-2.125-1.898-16.02-10.802-18.55-11.892-1.226-.527-2.329-.854-2.197-.647.28.429-.608.427-2.796-.006-1.251-.249-2.867-.536-3.593-.638-.727-.1-2.757-.473-4.514-.826s-4.183-.822-5.394-1.042c-2.84-.515-3.173-.636-8.146-3.004-3.996-1.904-5.275-2.404-9.247-3.618-.969-.295-2.404-.762-3.193-1.036-2.224-.772-4.126-1.289-6.165-1.672-1.028-.195-2.14-.483-2.466-.64-.328-.159-.872-.291-1.211-.293-.339-.002-1.361-.197-2.268-.433s-2.246-.569-2.972-.741c-2.735-.642-2.95-.747-4.093-1.942-.614-.644-1.759-1.787-2.543-2.542l-1.425-1.373-3.787-.611c-5.377-.87-8.173-.801-17.072.427-1.129.157-2.12.345-2.2.421-.231.22.634.713,1.488.852.434.071,1.336.441,2.004.824.669.383,2.056,1.04,3.082,1.458,1.028.421,2.561,1.082,3.408,1.469,2.42,1.109,7.312,3.323,9.247,4.187,4.507,2.015,12.898,5.984,14.036,6.643.707.408,1.731.797,2.312.879.575.08,1.739.328,2.587.55.848.224,2.384.544,3.413.713s2.565.456,3.413.64c.848.182,2.481.502,3.633.709,1.152.205,3.133.63,4.403.939,3.448.841,4.608,1.105,5.945,1.358.665.126,2.103.458,3.193.739,1.843.477,5.65,1.362,11.779,2.739,1.391.312,3.523.831,4.734,1.153,1.211.322,2.598.649,3.082.726.484.075,1.772.36,2.862.632s2.649.594,3.466.716c1.64.245,2.638.598,2.459.872-.194.295-1.218.205-3.798-.337-1.35-.285-2.975-.58-3.611-.657s-1.277-.228-1.425-.339c-.145-.109-.379-.132-.517-.05-.539.316-4.386.05-7.669-.529-1.891-.335-7.145-1.322-11.676-2.193s-8.433-1.523-8.668-1.452c-.242.073-.376.046-.306-.063.07-.109-.156-.155-.52-.105-.746.105-1.876-.119-1.656-.326.159-.151-1.101-.383-9.454-1.741-2.288-.37-3.767-.628-5.256-.72-3.008-.184-6.061.308-15.912,1.889-.451.073-.918.146-1.4.224-3.329.536-6.253,1.057-6.495,1.157-.242.103-.885.224-1.431.272-1.502.134-2.935.375-3.305.552-.181.088-.826.216-1.431.282-.603.065-2.089.312-3.3.544-1.211.232-2.596.477-3.078.542-.482.065-1.77.303-2.862.529-2.38.494-2.686.544-3.485.577-.339.015-.564.109-.5.211.167.255-1.722.726-2.415.6-.315-.059-1.482.073-2.594.291-1.11.22-2.166.425-2.349.46-.183.033-.577.117-.881.186-.304.071-1.295.241-2.202.379s-1.746.303-1.86.368c-.117.067-.513.149-.881.184-.755.073-9.958,1.917-10.469,2.096-.183.065-.528.136-.771.159-1.499.146-4.287.824-4.034.981.24.146.238.209-.007.36-.2.121.231.297,1.321.54.889.197,1.865.435,2.169.529.304.096,1.689.469,3.082.833,1.394.362,2.704.747,2.915.856.209.109.656.207.991.218l.608.017-.597.172c-.328.094-.958.094-1.396,0-.438-.094-1.711-.119-2.827-.056-1.966.111-2.048.098-2.655-.435-.407-.36-.903-.565-1.42-.588-.436-.019-1.039-.046-1.343-.061-.881-.04-1.832-.36-1.554-.523.139-.082-.273-.144-.914-.142-2.122.013-4.445-.249-6.306-.707-1.09-.268-2.12-.402-2.534-.328-.381.067-1.041.027-1.464-.09s-1.907-.404-3.3-.638-3.027-.554-3.633-.711-1.449-.287-1.871-.289c-.423-.002-1.266-.146-1.871-.32-.605-.176-1.966-.477-3.023-.67-1.059-.19-1.885-.408-1.838-.479.046-.073-.376-.134-.94-.136-1.154-.004-3.186-.228-3.959-.437-.399-.109-.449-.184-.22-.339.216-.149.187-.167-.108-.077-.22.069-.61.019-.863-.111-.253-.128-1.211-.222-2.131-.209-.918.015-2.116-.067-2.66-.18-.544-.111-1.358-.255-1.81-.32-.449-.065-.947-.239-1.103-.387-.447-.425-1.77-.552-2.255-.216-.484.337-1.658.395-1.658.084,0-.115-.117-.209-.258-.209s-.189.063-.108.14c.242.23-1.436,1.048-2.457,1.197-.524.075-1.204.295-1.515.487-.37.23-1.068.362-2.021.379-1.651.029-2.944.264-2.787.502.057.09-.438.423-1.103.743-.991.477-1.405.563-2.323.477-.614-.054-.995-.029-.848.056.17.1.018.209-.416.301-.376.077-.768.094-.87.033-.101-.059-.674.019-1.27.176-.599.155-.94.293-.757.305.264.017.271.056.04.197-.238.142-.227.239.055.504.189.182.346.414.346.517,0,.105-1.191.155-2.697.111-4.342-.126-4.52-.111-5.85.473-1.277.559-2.219.726-4.553.806-.727.023-2.162.203-3.193.4s-3.655.542-5.835.768c-3.853.4-9.553,1.239-11.559,1.699-.544.126-1.237.228-1.541.228-.92-.002-3.173.429-3.492.665-.165.123-.859.245-1.541.27-.683.027-1.986.105-2.893.174-2.453.186-2.609-.04-1-1.456.72-.636,1.427-1.155,1.568-1.155.143,0,.383-.14.533-.314s.456-.314.678-.314c.451,0,1.986-.927,2.237-1.354.097-.163.033-.324-.156-.393-.37-.134-4.324,1.668-4.586,2.09-.097.157-.37.285-.605.285s-.429.082-.429.182c0,.098-.57.548-1.266.996-1.288.831-1.651,1.483-1.074,1.937.535.423,3.701.703,6.486.573,2.153-.098,2.845-.061,3.34.182.498.245.971.27,2.349.119.947-.103,3.507-.291,5.687-.421,5.227-.312,11.57-.787,15.522-1.163,9.93-.948,10.773-.985,12.44-.544.848.224,2.58.797,3.853,1.272,1.273.475,3.038,1,3.928,1.167ZM211.934,355.685c2.175.496,5.436.561,7.015.142.544-.144,1.535-.412,2.202-.594.667-.182,2.054-.492,3.082-.686,1.028-.195,2.367-.448,2.972-.563.605-.115,2.021-.483,3.148-.816,1.125-.335,2.318-.607,2.649-.607s1.143-.142,1.805-.318c.663-.174,1.997-.45,2.966-.609,2.336-.389,2.88-.511,4.183-.948.605-.203,1.794-.485,2.642-.628.848-.142,2.285-.431,3.193-.64s2.741-.594,4.073-.854c3.433-.672,5.174-1.469,5.174-2.375,0-.634-.733-1.232-2.422-1.971-7.834-3.429-14.254-6.095-14.686-6.095-.288,0-.713-.167-.942-.37-.231-.203-1.317-.736-2.413-1.182-1.891-.77-2.008-.854-2.224-1.617-.222-.785-.255-.806-1.229-.806-.572,0-2.389.41-4.23.956-4.13,1.224-8.866,2.312-11.874,2.733-3.256.452-10.751.454-13.153.002-1.772-.335-5.271-1.829-5.478-2.339-.055-.138-.905-.925-1.885-1.747-1.766-1.479-1.788-1.49-2.338-1.147-.526.328-.579.322-1.083-.128l-.528-.471-1.592.46c-4.031,1.163-4.76,1.228-9.113.812-8.75-.835-19.122-2.113-23.008-2.835-1.028-.19-2.25-.328-2.715-.303-.533.027-1.112-.113-1.568-.381-.399-.234-1.015-.425-1.374-.425-.872,0-2.972.605-2.834.816.059.092-.137.276-.438.406-.517.224-.98.977-.98,1.594,0,.506,3.254,2.383,6.215,3.586,1.607.653,3.03,1.266,3.162,1.364.13.098.625.31,1.101.473.473.161,1.717.672,2.765,1.136,1.046.464,2.235.937,2.642,1.048.405.111,2.713.785,5.126,1.494,5.007,1.473,6.121,2.065,9.758,5.199,1.982,1.707,3.54,2.55,4.714,2.55.258,0,1.026.18,1.704.398.678.22,1.876.557,2.664.753.788.195,2.032.531,2.768.751.735.22,1.676.4,2.092.4s1.16.203,1.658.452c1.215.613,2.202.234,1.295-.496-.277-.224-1.407-1.483-3.278-3.661-.178-.205-.676-.785-1.107-1.283-1.158-1.345-.942-1.373.26-.033,1.616,1.799,4.26,4.157,5.72,5.097.511.331.986.772,1.057.983.137.41.37.504,1.757.707.484.071,1.229.259,1.651.418s1.563.435,2.532.613c.969.18,2.455.511,3.303.736.848.226,2.398.607,3.444.845ZM333.83,346.412c.52.159,1.114.289,1.321.285.383-.006,1.149-.462,1.149-.682,0-.13-4.762-3.896-8.146-6.446-6.372-4.8-6.909-5.149-10.531-6.869-9.932-4.716-23.191-9.947-31.742-12.52-1.167-.351-3.355-.783-4.954-.977-1.574-.19-3.159-.393-3.523-.454-.502-.082-.581-.054-.33.111.183.121.218.222.079.222-.139.002-.317.249-.396.548-.108.41.009.726.473,1.291,1.799,2.186,3.146,3.94,3.146,4.095,0,.096-.187.333-.416.523-.229.19-.742.944-1.143,1.674-.898,1.64-.782,1.883,1.14,2.371,5.119,1.301,7.228,1.87,7.904,2.138.938.37,5.758,1.724,6.825,1.919.423.077,1.477.362,2.34.636.865.272,2.1.605,2.746.736.647.132,1.607.414,2.136.63.528.216,1.867.623,2.979.906,2.728.699,5.407,1.519,10.022,3.071,1.455.49,2.041.588,2.809.479.823-.117,1.077-.061,1.684.379.392.285,1.158.73,1.704.99s1.783,1.044,2.752,1.743c1.466,1.061,2.147,1.387,4.073,1.969,1.27.381,2.906.751,3.633.82.727.067,1.746.255,2.263.414ZM190.106,343.383c0,.113-.099.149-.218.077-.247-.144-.733-.942-.577-.942.192,0,.795.657.795.864ZM168.45,357.897c-.07.174-.106.303-.079.289.026-.013.222-.067.436-.119.214-.052.332-.184.262-.291-.187-.289-.476-.232-.619.121ZM134.622,364.278c0,.115.15.209.33.209s.33-.094.33-.209-.15-.209-.33-.209-.33.094-.33.209Z" fill="#2CA58D" stroke-width="0"/>
    <path d="M164.09,371.3c-.89-.167-2.655-.693-3.928-1.167-1.273-.475-3.005-1.048-3.853-1.272-1.667-.441-2.51-.404-12.44.544-3.952.377-10.295.852-15.522,1.163-2.18.13-4.74.318-5.687.421-1.378.151-1.852.126-2.349-.119-.495-.243-1.187-.28-3.34-.182-2.785.13-5.951-.151-6.486-.573-.577-.454-.214-1.107,1.074-1.937.059-.038.117-.075.174-.113-.823.485-1.933,1.006-2.671,1.195-1.22.314-1.497.488-2.334,1.463-.898,1.046-.949,1.178-.949,2.44,0,1.22.055,1.377.647,1.852.815.651,2.713.983,5.645.985l2.184.002,1.059,1.881c.92,1.636,1.004,1.881.638,1.881-1.638,0-2.136,4.293-.793,6.848l.636,1.207,1.871.155c1.03.086,2.098.249,2.378.366.277.117.698.211.936.211.236,0,.429.073.429.163,0,.167-1.114.866-1.814,1.138-.214.082-.388.322-.388.536,0,.837.493,1.075,2.972,1.437,2.021.295,2.488.435,2.825.841.222.268.57.488.771.49.203,0,.665.188,1.028.416.405.255,1.033.416,1.623.416.753.002,1.125.138,1.713.63l.753.628,3.129.002h3.131s.374.628.374.628l.377.626h11.189c9.203,0,11.268.052,11.627.291.37.247,8.028.308,49.202.393,45.635.096,72.098-.021,75.957-.341.907-.073,3.137-.234,4.954-.358,11.29-.755,22.709-2.743,31.181-5.425,7.603-2.406,15.628-6.101,20.174-9.288,1.233-.864,1.502-.965,2.554-.965.947,0,1.345-.117,2.037-.596,1.088-.755,4.285-3.923,4.806-4.76.249-.404.724-.745,1.297-.935.68-.224,1.303-.741,2.51-2.078,1.726-1.91,1.627-1.86,4.767-2.408,1.072-.188,2.186-.446,2.475-.569.592-.257.964-1.253.964-2.588.002-.801-.103-.95-1.568-2.197-.863-.736-2.048-1.622-2.629-1.967-.368-.22-1.145-.736-2.012-1.337.592.429,1.046.778,1.312,1.017.898.801.799.86-2.078,1.253-2.488.341-13.862.27-16.361-.1-2.367-.354-12.728-1.483-23.889-2.607-2.2-.222-3.19-.086-5.284.718-1.462.561-10.062,3.561-11.449,3.994-1.107.345-3.664,1.211-8.036,2.726l-3.413,1.18-9.247.169c-21.046.385-37.275.638-53.392.837-25.613.314-59.687.889-59.812,1.009-.02.019-.764-.103-1.651-.268ZM211.934,355.685c-1.046-.239-2.596-.619-3.444-.845-.848-.226-2.334-.557-3.303-.736-.969-.178-2.109-.454-2.532-.613s-1.167-.347-1.651-.418c-1.387-.203-1.62-.297-1.757-.707-.07-.211-.546-.653-1.057-.983-1.46-.939-4.104-3.297-5.72-5.097-1.202-1.339-1.418-1.312-.26.033.432.498.929,1.078,1.107,1.283,1.871,2.178,3.001,3.438,3.278,3.661.907.73-.079,1.109-1.295.496-.498-.249-1.242-.452-1.658-.452s-1.356-.18-2.092-.4c-.735-.22-1.979-.557-2.768-.751-.788-.197-1.986-.534-2.664-.753-.678-.218-1.447-.398-1.704-.398-1.174,0-2.732-.843-4.714-2.55-3.637-3.134-4.751-3.726-9.758-5.199-2.413-.709-4.721-1.383-5.126-1.494-.407-.111-1.596-.584-2.642-1.048-1.048-.464-2.292-.975-2.765-1.136-.476-.163-.971-.375-1.101-.473-.132-.098-1.554-.711-3.162-1.364-2.961-1.203-6.215-3.08-6.215-3.586,0-.617.462-1.37.98-1.594.302-.13.498-.314.438-.406-.033-.048.055-.117.218-.197-.095.04-.192.08-.291.123-2.303,1.002-2.444,1.435-1.235,3.831.423.841.771,1.567.771,1.615s-.581.088-1.295.088c-2.237,0-2.631.146-2.928,1.092-.178.565-.192.942-.042,1.176.28.441,1.781,1.132,4.705,2.163,2.1.739,2.446.942,3.78,2.195,1.332,1.255,1.444,1.427,1.229,1.877-.181.379-.412.494-.984.494-.667,0-.79.094-1.163.893-.55,1.182-.608,2.429-.152,3.341.495.994.288,2.002-.469,2.276-.674.245-5.108,3.406-9.617,6.858-2.233,1.709-3.481,2.532-3.853,2.532-.621.004-5.502.73-10.458,1.559-4.201.701-8.129,1.693-10.872,2.733.383-.138.665-.211.751-.18.189.069.253.23.156.393-.251.427-1.786,1.354-2.237,1.354-.222,0-.528.14-.678.314s-.39.314-.533.314c-.141,0-.848.519-1.568,1.155-1.609,1.416-1.453,1.642,1,1.456.907-.069,2.211-.146,2.893-.174.683-.025,1.376-.146,1.541-.27.319-.236,2.572-.667,3.492-.665.304,0,.997-.103,1.541-.228,2.006-.46,7.706-1.299,11.559-1.699,2.18-.226,4.804-.571,5.835-.768s2.466-.377,3.193-.4c2.334-.08,3.276-.247,4.553-.806,1.33-.584,1.508-.598,5.85-.473,1.506.044,2.697-.006,2.697-.111,0-.103-.156-.335-.346-.517-.282-.266-.293-.362-.055-.504.231-.14.225-.18-.04-.197-.128-.008.004-.08.302-.176-.667.176-1.526.408-2.158.588-.841.239-1.572.389-1.625.339-.114-.107.185-.226,3.041-1.218,1.149-.4,5.764-2.046,10.253-3.659.592-.211,1.149-.412,1.678-.603-.207.05-.394.103-.421.115-.026.015.009-.115.079-.289.143-.354.432-.41.619-.121.053.082,0,.174-.121.239,7.048-2.536,8.518-3.063,9.947-2.979.489.029.973.13,1.673.247,3.118.519,17.458,3.13,27.592,5.024l8.036,1.502,3.193-.642c1.755-.354,5.471-1.107,8.256-1.676,20.802-4.247,44.407-8.687,54.493-10.25q7.559-1.172,9.428-.883c4.949.772,20.687,3.921,28.413,5.683,2.499.571,7.07,1.611,10.157,2.312,3.087.701,5.656,1.312,5.707,1.358.026.023.031.044.004.059.097-.019.172-.044.22-.071.139-.082.372-.059.517.05.148.111.788.262,1.425.339s2.261.372,3.611.657c2.58.542,3.604.632,3.798.337.178-.274-.819-.628-2.459-.872-.817-.121-2.376-.444-3.466-.716s-2.378-.557-2.862-.632c-.484-.077-1.871-.404-3.082-.726-1.211-.322-3.342-.841-4.734-1.153-6.13-1.377-9.936-2.262-11.779-2.739-1.09-.28-2.528-.613-3.193-.739-1.336-.253-2.497-.517-5.945-1.358-1.27-.31-3.252-.734-4.403-.939-1.152-.207-2.785-.527-3.633-.709-.848-.184-2.384-.471-3.413-.64s-2.565-.49-3.413-.713c-.848-.222-2.012-.471-2.587-.55-.581-.082-1.605-.471-2.312-.879-1.138-.659-9.529-4.628-14.036-6.643-1.935-.864-6.828-3.078-9.247-4.187-.848-.387-2.38-1.048-3.408-1.469-1.026-.418-2.413-1.075-3.082-1.458-.667-.383-1.57-.753-2.004-.824-.854-.138-1.72-.632-1.488-.852.079-.075,1.07-.264,2.2-.421,8.899-1.228,11.696-1.297,17.072-.427l3.787.611,1.425,1.373c.784.755,1.929,1.898,2.543,2.542,1.143,1.195,1.358,1.299,4.093,1.942.727.172,2.065.504,2.972.741s1.929.431,2.268.433c.339.002.883.134,1.211.293.326.157,1.438.446,2.466.64,2.039.383,3.941.9,6.165,1.672.788.274,2.224.741,3.193,1.036,3.972,1.214,5.251,1.714,9.247,3.618,4.974,2.368,5.306,2.49,8.146,3.004,1.211.22,3.637.688,5.394,1.042s3.787.726,4.514.826c.727.103,2.343.389,3.593.638,2.189.433,3.076.435,2.796.006-.07-.111.209-.069.674.073-.975-.387-1.16-.592-1.592-1.4-.357-.67-.471-1.101-.335-1.262.22-.259.189-.559-.416-1.195-.099.232-.782.624-1.136.63-.207.004-.801-.126-1.321-.285-.517-.159-1.537-.347-2.263-.414-.727-.069-2.362-.439-3.633-.82-1.927-.582-2.607-.908-4.073-1.969-.969-.699-2.206-1.483-2.752-1.743s-1.312-.705-1.704-.99c-.608-.439-.861-.496-1.684-.379-.768.109-1.354.01-2.809-.479-4.615-1.552-7.294-2.373-10.022-3.071-1.112-.282-2.451-.69-2.979-.906-.528-.216-1.488-.498-2.136-.63-.645-.132-1.88-.464-2.746-.736-.863-.274-1.918-.559-2.34-.636-1.068-.195-5.887-1.548-6.825-1.919-.676-.268-2.785-.837-7.904-2.138-1.922-.488-2.039-.73-1.14-2.371.401-.73.914-1.483,1.143-1.674.229-.19.416-.427.416-.523,0-.155-1.347-1.908-3.146-4.095-.465-.565-.581-.881-.473-1.291.079-.299.258-.546.396-.548.139,0,.103-.1-.079-.222-.007-.004-.015-.008-.022-.015-1.407.056-1.358.64-.623,2.122.354.711.645,1.366.645,1.452,0,.088-.586.326-1.303.531l-1.301.377-2.237-1.814c-2.096-1.697-2.285-1.804-2.994-1.678-.473.086-.878.04-1.083-.123-.405-.32-.425-.626-.04-.626.159,0,.462-.121.674-.268.352-.245.227-.433-1.389-2.073-.975-.992-1.775-1.896-1.775-2.009,0-.349-1.731-1.709-2.706-2.128-3.8-1.628-5.764-2.329-7.12-2.55-1.453-.236-1.665-.22-2.827.203-1.211.439-1.312.444-2.724.132-1.911-.425-2.71-.272-3.529.672-.645.743-.665.749-1.889.605-.68-.082-1.506-.28-1.834-.444-.874-.433-1.378-.368-2.074.264-.808.736-.863,2.071-.119,2.894.465.513.645.554,2.631.619,2.31.075,2.596.153,2.596.709,0,.46,1.013,1.393,1.832,1.688.339.121,1.004.222,1.475.222.555,0,.923.117,1.052.335.108.184.702.498,1.323.697,1.046.337,1.257.536,2.972,2.751,1.618,2.092,1.927,2.389,2.486,2.389.779,0,.837.293.159.799-.374.28-.511.594-.511,1.182,0,.96-.185,1.052-2.142,1.052-1.156,0-2.098.209-4.661,1.036-6.869,2.214-14.428,5.183-15.073,5.923-.275.314-.482.418-1.039.418.249.08.315.274.449.751.216.764.332.847,2.224,1.617,1.096.446,2.182.979,2.413,1.182.229.203.654.37.942.37.432,0,6.852,2.666,14.686,6.095,1.689.739,2.422,1.337,2.422,1.971,0,.906-1.742,1.703-5.174,2.375-1.332.259-3.166.644-4.073.854s-2.345.498-3.193.64c-.848.142-2.037.425-2.642.628-1.303.437-1.847.559-4.183.948-.969.159-2.303.435-2.966.609-.663.176-1.475.318-1.805.318s-1.524.272-2.649.607c-1.127.333-2.543.701-3.148.816-.605.115-1.944.368-2.972.563-1.028.195-2.415.504-3.082.686-.667.182-1.658.45-2.202.594-1.579.418-4.839.354-7.015-.142ZM222.801,357.759c-1.074.245-3.144.272-3.743.05l-.44-.163.44-.117c.242-.065.984-.23,1.651-.368,1.182-.245,4.919-1.084,10.238-2.299,18.094-4.132,24.796-5.71,25.5-6.003.465-.192,1.03-.577,1.262-.856l.421-.508,3.527.992c1.94.546,3.527,1.065,3.527,1.151s-.471.224-1.046.303c-2.008.278-38.728,7.225-41.337,7.819ZM327.714,346.653c0,.123-.152.092-5.064-1-2.34-.521-4.674-1.191-5.945-1.707-3.091-1.26-6.449-2.527-8.756-3.308-1.123-.379-1.993-.736-1.933-.793.059-.056.68,0,1.38.126,1.508.268,4.639.594,7.548.783l2.092.136,3.461,1.983c1.902,1.092,3.899,2.111,4.436,2.264.907.259,2.781,1.28,2.781,1.517ZM228.636,366.216c0,.09-.222.117-.495.063s-2.774-.444-5.559-.864c-6.229-.939-22.784-3.624-31.485-5.105-.546-.094-2.448-.408-4.412-.728-.018.013-.04.029-.064.046-.229.155-.178.23.22.339.773.209,2.805.433,3.959.437.564.002.986.063.94.136-.046.071.779.289,1.838.479,1.057.192,2.417.494,3.023.67.605.174,1.449.318,1.871.32.423.002,1.266.132,1.871.289s2.239.477,3.633.711,2.878.521,3.3.638,1.083.157,1.464.09c.414-.073,1.444.061,2.534.328,1.86.458,4.183.72,6.306.707.641-.002,1.052.061.914.142-.277.163.674.483,1.554.523.304.015.907.042,1.343.061.517.023,1.013.228,1.42.588.608.534.689.546,2.655.435,1.116-.063,2.389-.038,2.827.056.438.094,1.068.094,1.396,0l.597-.172-.608-.017c-.335-.01-.782-.109-.991-.218-.07-.036-.258-.1-.528-.186.295.105.476.188.476.23ZM173.657,358.131c-.852.213-2.015.531-3.177.868-1.598.462-3.193.921-4.681,1.345.495-.075,1.152-.128,1.876-.14.953-.017,1.651-.149,2.021-.379.31-.192.991-.412,1.515-.487,1.022-.149,2.699-.967,2.457-1.197-.004-.004-.009-.008-.011-.01ZM164.914,360.598c-2.911.829-5.315,1.502-6.411,1.791.414-.084.751-.115.826-.071.101.061.493.044.87-.033.434-.092.586-.201.416-.301-.148-.086.233-.111.848-.056.918.086,1.332,0,2.323-.477.665-.32,1.16-.653,1.103-.743-.024-.036-.013-.073.026-.109ZM184.885,359.286c-2.052-.337-4.542-.749-6.009-.996-.487-.082-.975-.157-1.438-.22.209.067.39.159.506.272.156.149.654.322,1.103.387.451.065,1.266.209,1.81.32.544.113,1.742.195,2.66.18.48-.006.971.015,1.367.056ZM320.864,355.765c-.454-.088-.923-.178-1.407-.272-5.987-1.163-10.637-2.034-15-2.804.98.188,1.187.272,1.116.339-.22.207.909.431,1.656.326.363-.05.59-.004.52.105-.07.109.064.136.306.063.236-.071,4.137.582,8.668,1.452,1.352.262,2.77.531,4.141.791ZM153.85,329.461c.251.077.509.184.709.301.456.268,1.035.408,1.568.381.465-.025,1.687.113,2.715.303,1.246.232,3.157.521,5.469.833-3.703-.521-6.704-1.038-8.882-1.532-.599-.138-1.114-.234-1.579-.287ZM247.655,357.296c-.856.159-2.015.379-3.197.607-.365.071-.724.14-1.068.207.85-.136,1.614-.207,1.858-.161.694.126,2.583-.345,2.415-.6-.011-.019-.013-.036-.009-.052ZM192.647,332.091l.436.389c.504.45.557.456,1.083.128.196-.121.324-.199.487-.182-.656-.324-1.262-.418-2.006-.335ZM176.38,357.939c-.722-.077-1.277-.113-1.497-.084-.15.019-.482.092-.934.203.051.038.084.092.084.153,0,.312,1.174.253,1.658-.084.161-.111.41-.172.689-.188ZM220.807,362.504c-1.442.312-2.867.69-2.77.783.106.1,1.171.404,2.367.674.929.211,2.023.473,2.75.657-.218-.061-.381-.107-.462-.134-.304-.094-1.279-.333-2.169-.529-1.09-.243-1.521-.418-1.321-.54.244-.151.247-.213.007-.36-.139-.086.63-.326,1.598-.55ZM190.106,343.383c0-.207-.603-.864-.795-.864-.156,0,.33.797.577.942.119.071.218.036.218-.077ZM203.213,337.688c.236.063.456.115.654.153,2.402.452,9.897.45,13.153-.002.619-.088,1.312-.203,2.059-.341-2.933.487-5.665.67-8.937.672-3.034.002-5.189-.113-6.929-.481ZM346.88,354.428c3.129,1.958,6.636,4.245,9.067,5.923-.031-.021-.062-.044-.092-.065-2.279-1.645-5.749-3.887-8.974-5.858ZM134.622,364.278c0-.115.15-.209.33-.209s.33.094.33.209-.15.209-.33.209-.33-.094-.33-.209ZM197.895,334.978c.284.268.469.46.493.523.09.224.808.634,1.735,1.052-.749-.416-1.469-.935-2.228-1.575ZM284.978,319.939c-1.535-.404-2.737-.588-4.683-.833-.599-.073-1.127-.136-1.59-.18.641.082,1.431.182,2.222.276,1.246.153,2.851.448,4.051.736ZM186.922,333.426c1.099-.138,2.241-.437,4.04-.956l.359-.105c-.137.038-.282.077-.429.121-.806.236-2.277.596-3.272.801-.262.054-.489.1-.698.138ZM300.269,351.965c-1.543-.259-3.093-.515-4.701-.774-1.955-.314-3.281-.538-4.615-.626-1.185-.077-2.376-.048-4.023.119,1.583-.157,2.761-.188,3.932-.117,1.488.092,2.968.349,5.256.72,1.645.268,3.012.492,4.15.678ZM186.506,359.552c-.156-.025-.315-.052-.473-.077-.17-.027-.346-.056-.526-.086.059.017.108.033.143.05.251.128.636.178.856.113ZM335.105,344.985c-1.002-.845-2.519-2.03-4.747-3.735,1.788,1.377,3.602,2.806,4.747,3.735ZM232.562,334.208c-.762.084-1.788.341-3.598.877,1.403-.412,2.783-.745,3.598-.877ZM328.352,339.717c-2.226-1.693-3.794-2.866-5.057-3.754,1.171.835,2.673,1.958,4.859,3.605.066.05.13.098.198.149ZM313.982,331.013c-5.429-2.456-11.515-4.965-17.114-7.059,5.608,2.105,11.674,4.601,17.114,7.059ZM251.649,356.56c1.092-.226,2.38-.464,2.862-.529-.482.065-1.77.301-2.862.525-1.092.224-2.296.452-2.677.506-.048.008-.123.019-.222.036.526-.052,1.158-.178,2.9-.538ZM335.585,357.803c-.293.013-.856.008-1.869-.006.786.042,1.442.046,1.869.006ZM330.253,357.453c-.892-.132-1.964-.312-3.272-.544.577.105,1.059.192,1.418.257.608.107,1.233.203,1.854.287ZM151.144,329.741c.269-.086.579-.169.885-.239-.288.054-.579.134-.885.239ZM195.918,333.267c.172.14.365.303.586.487l.044.038c-.222-.192-.432-.368-.63-.525ZM113.86,366.714c.013-.019.031-.042.059-.067-.031.025-.051.046-.059.061-.097.159-.368.291-.603.291.236,0,.506-.128.603-.285ZM223.242,362.073c.242-.023.588-.094.771-.159-.183.065-.528.136-.771.157-.119.013-.26.029-.416.052.145-.021.286-.038.416-.05ZM112.823,367.189s.002-.006.002-.008c0-.1.194-.182.429-.182-.236,0-.429.08-.429.174,0,.006,0,.01-.002.017Z" fill="#161719" stroke-width="0"/>
    <path d="M182.18,357.585c1.693.234,4.727.234,5.504-.002.304-.092.456-.178.341-.188-.117-.013-2.437-.416-5.161-.9-3.208-.571-4.976-.803-5.027-.659-.042.121-.321.178-.619.123-.299-.054-.544-.017-.544.082,0,.1-.288.192-.641.203-.35.013-.89.209-1.198.439l-.559.418,3.237.14c1.779.08,3.877.232,4.665.343ZM155.362,363.234c-.804.149-.042-.331,1.827-.998.832-.299,4.249-1.525,8.045-2.887-3.833,1.373-7.387,2.64-8.375,2.984-2.856.992-3.155,1.111-3.041,1.218.051.05.738-.092,1.543-.316ZM219.944,362.699c-.98.19-1.803.324-2.019.324-.284,0-.517.088-.517.197,0,.107.174.195.385.192.143-.002.702.105,1.455.266-.661-.174-1.143-.326-1.211-.391-.077-.073.812-.328,1.907-.588ZM164.914,360.598h.002c-3.298.937-5.81,1.634-6.515,1.801-.489.117-1.237.322-1.761.481.335-.09.667-.18.962-.257.126-.04.28-.084.456-.13.152-.04.304-.075.445-.105,1.096-.289,3.501-.962,6.411-1.791ZM223.612,362.017c-.033.002-.062.002-.081-.002-.037-.008-.306.036-.718.111l.013-.002h0c.156-.023.297-.04.416-.052.11-.01.242-.029.37-.054ZM229.261,360.805c2.424-.485,4.848-.952,5.22-.988-.39.038-2.805.502-5.22.988Z" fill="#908f8f" stroke-width="0"/>
    <path d="M264.139,349.94c-2.008.278-38.728,7.225-41.337,7.819-1.074.245-3.144.272-3.743.05l-.44-.163.44-.117c.242-.065.984-.23,1.651-.368,1.182-.245,4.919-1.084,10.238-2.299,18.094-4.132,24.796-5.71,25.5-6.003.465-.192,1.03-.577,1.262-.856l.421-.508,3.527.992c1.94.546,3.527,1.065,3.527,1.151s-.471.224-1.046.303Z" fill="#fdfdfd" stroke-width="0"/>
    <path d="M322.65,345.653c-2.34-.521-4.674-1.191-5.945-1.707-3.091-1.26-6.449-2.527-8.756-3.308-1.123-.379-1.993-.736-1.933-.793s.68,0,1.38.126c1.508.268,4.639.594,7.548.783l2.092.136,3.461,1.983c1.902,1.092,3.899,2.111,4.436,2.264.907.259,2.781,1.28,2.781,1.517,0,.123-.152.092-5.064-1Z" fill="#fdfdfd" stroke-width="0"/>
    <path d="M157.19,362.236c.969-.347,5.434-1.95,9.923-3.563,11.372-4.086,10.54-3.877,13.455-3.392,3.118.519,17.458,3.13,27.592,5.024l8.036,1.502,3.193-.642c1.755-.354,5.471-1.107,8.256-1.676,20.802-4.247,44.407-8.687,54.493-10.25q7.559-1.172,9.428-.883c4.949.772,20.687,3.921,28.413,5.683,2.499.571,7.07,1.611,10.157,2.312,3.087.701,5.656,1.312,5.707,1.358.119.109-.172.119-2.294.084-1.869-.029-5.185-.571-14.091-2.299-10.084-1.958-16.372-3.09-23.889-4.302-6.486-1.044-6.033-1.075-22.017,1.49-3.329.536-6.253,1.057-6.495,1.157-.242.103-.885.224-1.431.272-1.502.134-2.935.375-3.305.552-.181.088-.826.216-1.431.282-.603.065-2.089.312-3.3.544s-2.596.477-3.078.542c-.482.065-1.77.301-2.862.525-1.092.224-2.296.452-2.677.506-.381.056-2.413.433-4.514.841-2.103.408-3.97.768-4.152.799-.183.033-.577.115-.881.184-.304.071-1.295.241-2.202.379-.907.138-1.746.303-1.86.368-.117.067-.513.149-.881.184-.793.077-9.989,1.925-10.469,2.103-.183.067-.399.111-.482.094s-1.262.205-2.62.49c-1.358.285-2.702.519-2.986.519s-.517.088-.517.197c0,.107.174.195.385.192.388-.004,3.84.783,5.89,1.341.605.165,1.968.525,3.027.801,1.059.274,1.927.571,1.927.661s-.222.117-.495.063-2.774-.444-5.559-.864c-6.229-.939-22.784-3.624-31.485-5.105-.605-.105-2.884-.479-5.064-.835s-5.401-.889-7.156-1.184c-1.755-.295-3.554-.492-3.994-.435-.44.054-2.422.569-4.403,1.144-5.804,1.68-11.013,3.147-12.079,3.4-.544.13-1.416.37-1.933.536-2.257.711-1.689.161.722-.699ZM177.514,357.242c1.779.08,3.877.232,4.665.343,1.693.234,4.727.234,5.504-.002.304-.092.456-.178.341-.188-.117-.013-2.437-.416-5.161-.9-3.208-.571-4.976-.803-5.027-.659-.042.121-.321.178-.619.123-.299-.054-.544-.017-.544.082,0,.1-.288.192-.641.203-.35.013-.89.209-1.198.439l-.559.418,3.237.14Z" fill="#fdfdfd" stroke-width="0"/>
  </g>
  <path d="M159.801,396.852c-.471-.068-.942-.136-1.413-.204-.186-.027-.336.044-.445.152-6.448-.129-12.895-.257-19.343-.386-.644-.013-.644.987,0,1,7.023.14,14.045.28,21.068.42.548.011.702-.9.133-.982Z" fill="#e0e0e0" stroke-width="0"/>
</svg>