<?xml version="1.0" encoding="UTF-8"?>
<svg id="Layer_1" data-name="Layer 1" xmlns="http://www.w3.org/2000/svg" width="479.08" height="428.788" viewBox="0 0 479.08 428.788">
  <g id="freepik--background-complete--inject-64">
    <path d="M74.804,397.23l-.754,4.13c5.234,8.58,15.887,10.03,25.112,9.44,9.225-.59,19.098-2.26,27.206,2.74.692.42,1.419.99,1.57,1.86.142.82-.284,1.61-.523,2.4-.763,2.54.497,5.41,2.404,7,1.907,1.59,4.32,2.18,6.671,2.62,11.496,2.15,23.356,1.76,34.719-1.14,1.73-.44,3.814-1.35,3.61-3.66-.106-1.13-.763-2.1-1.641-2.66l-4.364-2.84c-2.235-1.45-1.384-5.29,1.189-5.41,8.329-.38,16.969,2.77,25.467,3.49,7.495.63,15.115-.68,22.105-3.82,6.768-3.04,13.164-7.81,20.437-8.29,6.591-.44,12.889,2.73,19.337,4.31,9.953,2.43,20.624.98,29.769-4.06,5.136-2.83,9.491-1.78,15.106-.56,12.658,2.75,42.09,7.39,50.189,5.13,3.743-1.04,20.154-7.8,22.478-10.66H74.804v-.02ZM170.69,423.72c-4.8,0-8.69-1.04-8.69-2.32s3.89-2.32,8.69-2.32,8.69,1.04,8.69,2.32-3.89,2.32-8.69,2.32ZM220.13,410.78c-4.48,0-8.11-.82-8.11-1.83s3.63-1.83,8.11-1.83,8.11.82,8.11,1.83-3.63,1.83-8.11,1.83Z" fill="#e0e0e0" stroke-width="0"/>
    <path d="M0,176.93c7.38-15.54,26.07-24.1,43.1-21.57,17.02,2.52,31.72,14.88,39.25,30.35,8.35-4.95,19.12-5.57,27.99-1.63,8.87,3.95,15.62,12.36,17.54,21.88,4.61-2.68,10.61-2.81,15.33-.33s8.02,7.49,8.43,12.81H2.49l-2.49-41.51h0Z" fill="#f5f5f5" stroke-width="0"/>
    <path d="M204.51,217.04c4.89-10.17,17.7-15.44,28.06-11.55-3.01-24.22,12.41-49.54,34.91-57.31s49.64,2.83,61.46,24.01c2.47-34.69,21.99-61.44,40.89-77.12,23.46-19.45,46.09-18.55,46.09-18.55,0,0,1.94-19.1,21.84-29.5,12.12-6.34,33.32-7.04,41.32,4.27v167.36l-274.57-1.62v.01Z" fill="#f5f5f5" stroke-width="0"/>
    <path d="M95.17,55.47c-.78-2.08-1.57-4.18-2.88-5.97s-3.22-3.26-5.42-3.53-4.64.92-5.36,3.02c-.32-4.73-.99-9.58-3.35-13.69-2.37-4.11-6.78-7.33-11.51-7.04-4.46.27-8.28,3.59-10.4,7.52-2.12,3.93-2.85,8.44-3.55,12.86-1.69-2.07-5.26-1.42-7.02.59-1.76,2.01-2.21,4.82-2.59,7.47h53.22l-1.13-1.23h-.01Z" fill="#ebebeb" stroke-width="0"/>
    <path d="M314.67,98.46c-2.17-5.8-4.39-11.67-8.04-16.67s-8.99-9.09-15.13-9.84-12.95,2.56-14.95,8.42c-.88-13.2-2.75-26.74-9.36-38.2s-18.93-20.46-32.13-19.65c-12.45.76-23.11,10.01-29.03,20.98-5.92,10.98-7.95,23.56-9.9,35.88-4.72-5.79-14.68-3.97-19.61,1.65-4.92,5.62-6.17,13.47-7.22,20.86l147.07,1.53-1.71-4.97.01.01Z" fill="#f5f5f5" stroke-width="0"/>
    <path d="M412.18,139.67c-.56-1.49-1.13-2.99-2.06-4.28-.94-1.28-2.31-2.33-3.88-2.53-1.58-.19-3.32.66-3.84,2.16-.23-3.39-.71-6.86-2.4-9.8s-4.86-5.25-8.24-5.04c-3.19.2-5.93,2.57-7.45,5.38-1.52,2.82-2.04,6.05-2.54,9.21-1.21-1.49-3.77-1.02-5.03.42s-1.58,3.45-1.85,5.35l37.73.39-.44-1.27v.01Z" fill="#ebebeb" stroke-width="0"/>
    <path d="M159.82,16.28c-.47-1.24-.94-2.5-1.72-3.57s-1.93-1.95-3.24-2.11c-1.32-.16-2.77.55-3.2,1.8-.19-2.83-.59-5.73-2-8.18-1.42-2.45-4.06-4.38-6.88-4.21-2.67.16-4.95,2.14-6.22,4.49-1.27,2.35-1.7,5.05-2.12,7.69-1.01-1.24-3.15-.85-4.2.35-1.05,1.2-1.32,2.88-1.55,4.47l31.51.33-.37-1.06h-.01Z" fill="#f5f5f5" stroke-width="0"/>
    <path d="M149.28,134.93c-.9-2.41-1.82-4.85-3.34-6.93-1.52-2.08-3.73-3.78-6.29-4.09-2.55-.31-5.38,1.07-6.21,3.5-.37-5.48-1.14-11.11-3.89-15.87-2.74-4.76-7.87-8.5-13.35-8.16-5.17.32-9.6,4.16-12.06,8.72s-3.3,9.79-4.11,14.91c-1.96-2.41-6.1-1.65-8.15.68-2.05,2.33-2.56,5.59-3,8.67l61.1.64-.71-2.06.01-.01Z" fill="#f5f5f5" stroke-width="0"/>
  </g>
  <g id="freepik--Water--inject-64">
    <path d="M457,219.45c0,.14-97.37.26-217.45.26s-217.47-.12-217.47-.26,97.35-.26,217.47-.26,217.45.12,217.45.26Z" fill="#263238" stroke-width="0"/>
    <g>
      <path d="M400.43,243.17c0,.14-67.58.26-150.93.26s-150.95-.12-150.95-.26,67.57-.26,150.95-.26,150.93.12,150.93.26Z" fill="#263238" stroke-width="0"/>
      <path d="M251.52,249.85c0,.14-39.62.26-88.48.26s-88.49-.12-88.49-.26,39.61-.26,88.49-.26,88.48.12,88.48.26Z" fill="#263238" stroke-width="0"/>
      <path d="M338.33,260.43c0,.14-27.5.26-61.42.26s-61.43-.12-61.43-.26,27.5-.26,61.43-.26,61.42.12,61.42.26h0Z" fill="#263238" stroke-width="0"/>
      <path d="M314.3,416.74c0,.14-17.2.26-38.41.26s-38.42-.12-38.42-.26,17.2-.26,38.42-.26,38.41.12,38.41.26Z" fill="#263238" stroke-width="0"/>
      <path d="M138.63,405.29c0,.14-17.2.26-38.41.26s-38.42-.12-38.42-.26,17.2-.26,38.42-.26,38.41.12,38.41.26Z" fill="#ff725e" stroke-width="0"/>
      <path d="M392.36,402.32c0,.14-7.74.26-17.29.26s-17.29-.12-17.29-.26,7.74-.26,17.29-.26,17.29.12,17.29.26Z" fill="#ff725e" stroke-width="0"/>
      <path d="M256.23,423.18c0,.14-5.77.26-12.88.26s-12.88-.12-12.88-.26,5.77-.26,12.88-.26,12.88.12,12.88.26Z" fill="#263238" stroke-width="0"/>
    </g>
  </g>
  <g id="freepik--Sun--inject-64">
    <g>
      <g>
        <circle cx="356.228" cy="31.941" r="30.01" fill="#ff725e" stroke-width="0"/>
        <circle cx="356.228" cy="31.941" r="30.01" fill="#fff" isolation="isolate" opacity=".9" stroke-width="0"/>
      </g>
      <g>
        <circle cx="356.23" cy="31.955" r="26.76" fill="#ff725e" stroke-width="0"/>
        <circle cx="356.23" cy="31.955" r="26.76" fill="#fff" isolation="isolate" opacity=".6" stroke-width="0"/>
      </g>
      <g>
        <circle cx="356.232" cy="31.96" r="22.27" transform="translate(-.549 57.055) rotate(-9.15)" fill="#ff725e" stroke-width="0"/>
        <circle cx="356.232" cy="31.96" r="22.27" transform="translate(-.549 57.055) rotate(-9.15)" fill="#fff" isolation="isolate" opacity=".3" stroke-width="0"/>
      </g>
      <path d="M374.06,31.94c0,9.85-7.98,17.83-17.83,17.83s-17.83-7.98-17.83-17.83,7.98-17.83,17.83-17.83,17.83,7.98,17.83,17.83Z" fill="#ff725e" fill-rule="evenodd" stroke-width="0"/>
    </g>
  </g>
  <g id="freepik--Birds--inject-64">
    <g>
      <path d="M106.48,86.02s-.63-.22-1.8-.48c-1.16-.26-2.91-.48-5.02-.19-2.1.28-4.59,1.12-6.76,2.92-2.17,1.76-4.03,4.42-4.77,7.58l-.02.08-.14.54-.21-.51c-1.22-3-3.37-5.39-5.72-6.9-2.35-1.54-4.87-2.18-6.98-2.33-2.12-.15-3.84.16-4.99.46s-1.76.57-1.77.54c0-.01.14-.08.43-.21s.73-.29,1.3-.46c1.15-.34,2.88-.69,5.04-.58,2.14.11,4.73.74,7.15,2.3,2.41,1.54,4.63,3.97,5.87,7.05l-.35.03.02-.09c.76-3.25,2.68-5.97,4.92-7.76,2.24-1.82,4.8-2.66,6.94-2.91,2.16-.26,3.92.01,5.09.31.59.15,1.03.3,1.32.42s.45.18.44.2l.01-.01Z" fill="#263238" stroke-width="0"/>
      <path d="M156.67,61.25s-.35-.1-1-.23c-.64-.13-1.59-.24-2.75-.08-1.15.16-2.5.63-3.68,1.61-1.18.96-2.19,2.41-2.59,4.13v.05l-.15.54-.21-.51c-.66-1.63-1.84-2.93-3.11-3.76-1.28-.84-2.65-1.2-3.8-1.29-1.16-.09-2.1.07-2.73.22-.63.16-.97.29-.98.26,0-.01.07-.06.23-.13.16-.08.4-.17.71-.27.63-.2,1.59-.4,2.79-.34,1.19.06,2.63.4,3.97,1.26,1.34.85,2.57,2.2,3.27,3.91l-.35.03v-.05c.44-1.81,1.5-3.32,2.75-4.31,1.25-1.01,2.67-1.47,3.86-1.6,1.2-.14,2.17.02,2.81.2.32.09.57.17.73.25.16.07.24.11.24.12l-.01-.01Z" fill="#263238" stroke-width="0"/>
      <path d="M123.86,49.98s-.34.39-.96,1.09c-.62.7-1.47,1.76-2.36,3.18-1.78,2.8-3.56,7.26-3.5,12.38v.16l-.36.03c-.38-2.5-1.21-4.79-2.26-6.7-1.05-1.92-2.28-3.48-3.45-4.65-1.16-1.18-2.22-2.01-2.99-2.53-.76-.53-1.2-.79-1.19-.82,0-.01.12.05.34.16.21.12.54.28.93.54.79.49,1.89,1.3,3.09,2.47s2.47,2.73,3.56,4.67c1.09,1.94,1.94,4.27,2.33,6.81l-.36.03v-.16c-.06-5.21,1.79-9.73,3.65-12.52.92-1.42,1.81-2.46,2.47-3.14.32-.35.6-.58.78-.76.18-.17.28-.25.29-.24h-.01Z" fill="#263238" stroke-width="0"/>
    </g>
  </g>
  <g>
    <rect x="360.239" y="332.642" width="72.214" height="1.129" fill="#95a5a5" stroke-width="0"/>
    <polygon points="169.299 354.875 126.115 354.875 136.203 341.725 169.299 341.725 169.299 354.875" fill="#95a5a5" stroke-width="0"/>
    <polygon points="136.203 341.725 141.699 341.725 132.762 354.613 126.316 354.613 136.203 341.725" fill="#2e5672" stroke-width="0"/>
    <path d="M74.672,383.875v13.35h245.318c9.454,0,18.898-.691,28.172-2.115,58.811-9.028,96.088-25.512,108.449-50.626l-247.58-2.089-134.36,30.037v11.443h0Z" fill="#2CA58D" stroke-width="0"/>
    <path d="M348.162,383.826c-9.274,1.424-18.718,2.115-28.172,2.115H74.672v11.283h245.318c9.454,0,18.898-.691,28.172-2.115,58.811-9.028,96.088-25.512,108.449-50.626l-7.677-.065c-16.952,18.898-51.216,31.801-100.773,39.408Z" fill="#0A2342" isolation="isolate" opacity=".3" stroke-width="0"/>
    <polygon points="177.984 283.281 259.54 339.212 257.632 340.877 176.076 284.947 177.984 283.281" fill="#95a5a5" stroke-width="0"/>
    <polygon points="147.707 397.224 74.672 397.224 74.672 390.549 123.053 390.549 147.707 397.224" fill="#5d4037" stroke-width="0"/>
    <ellipse cx="178.78" cy="285.128" rx="3.913" ry="3.027" fill="#95a5a5" stroke-width="0"/>
    <polygon points="187.453 291.985 189.088 292.611 154.179 347.136 152.544 346.509 187.453 291.985" fill="#95a5a5" stroke-width="0"/>
    <polygon points="197.052 298.38 198.687 299.007 170.48 343.054 168.845 342.428 197.052 298.38" fill="#95a5a5" stroke-width="0"/>
    <path d="M277.516,357.652s-59.24,1.668-112.45,26.222l-98.767-.384s26.713-17.425,87.492-23.796c9.542-1,112.405-1.719,123.725-2.042Z" fill="#ffa22b" isolation="isolate" opacity=".3" stroke-width="0"/>
    <path d="M86.382,372.909l104.632.782c-9.619,3.118-17.919,6.617-25.946,10.185l-112.635-.437,33.949-10.53Z" fill="#5d4037" stroke-width="0"/>
    <polygon points="191.014 373.683 84.533 373.683 84.533 371.742 197.09 371.742 191.014 373.683" fill="#fffad0" stroke-width="0"/>
    <path d="M123.053,363.612h106.625l221.827-10.991c2.204-2.794,3.847-5.581,5.106-8.136-79.774-4.951-159.283-4.856-238.541,0l-95.017,19.127Z" fill="#733020" stroke-width="0"/>
    <polygon points="231.605 363.612 121.808 363.612 121.808 361.671 268.894 361.671 231.605 363.612" fill="#fffad0" stroke-width="0"/>
    <path d="M52.433,383.438s163.997-54.073,404.18-38.953h0c-5.421-4.402-12.819-7.027-20.669-7.332l-228.759-8.904-117.719,36.078h-15.409l-21.624,19.111Z" fill="#95a5a5" stroke-width="0"/>
    <rect x="430.296" y="339.853" width="11.094" height="1.589" fill="#2e5672" stroke-width="0"/>
    <g opacity=".7">
      <polygon points="73.824 367.387 73.824 374.041 74.065 374.041 75.518 373.685 75.518 367.387 73.824 367.387" fill="#95a5a5" stroke-width="0"/>
      <polygon points="76.829 367.387 76.829 373.364 78.523 372.947 78.523 367.387 76.829 367.387" fill="#95a5a5" stroke-width="0"/>
      <polygon points="79.834 367.387 79.834 372.626 81.528 372.211 81.528 367.387 79.834 367.387" fill="#95a5a5" stroke-width="0"/>
      <polygon points="82.838 367.387 82.838 371.89 84.533 371.473 84.533 367.387 82.838 367.387" fill="#95a5a5" stroke-width="0"/>
    </g>
    <polygon points="384.672 335.157 174.305 338.274 207.183 327.497 349.145 331.583 384.672 335.157" fill="#f0f0f0" stroke-width="0"/>
    <path d="M345.96,331.01l-36.498-19.285c-37.19,4.102-66.611,9.433-95.653,15.891l85.439,3.394h46.713Z" fill="#c6e8f1" stroke-width="0"/>
    <path d="M308.828,313.691l31.1,16.088-43.296.566-73.447-3.909c12.444-2.283,31.232-5.588,51.819-8.714,8.557-1.3,21.289-3.038,33.824-4.03M309.462,311.724c-11.494.878-23.947,2.457-34.933,4.126-36.728,5.577-67.346,11.646-67.346,11.646l89.386,4.757,51.282-.67-38.389-19.859h0Z" fill="#2e5672" stroke-width="0"/>
    <line x1="281.063" y1="316.387" x2="302.715" y2="331.192" fill="none" stroke="#2e5672" stroke-miterlimit="10" stroke-width="1.748"/>
    <line x1="295.641" y1="313.8" x2="320.742" y2="331.192" fill="none" stroke="#2e5672" stroke-miterlimit="10" stroke-width="1.776"/>
    <polygon points="137.219 343.072 138.185 343.443 135.182 348.134 134.216 347.763 137.219 343.072" fill="#95a5a5" stroke-width="0"/>
    <rect x="213.243" y="332.741" width="21.161" height="1.51" fill="#95a5a5" stroke-width="0"/>
    <path d="M209.444,333.496c0,.834-.874,1.51-1.951,1.51s-1.952-.676-1.952-1.51.874-1.51,1.952-1.51,1.951.676,1.951,1.51Z" fill="#95a5a5" stroke-width="0"/>
    <rect x="403.896" y="333.206" width=".718" height="3.407" fill="#95a5a5" stroke-width="0"/>
    <rect x="397.16" y="333.206" width=".718" height="3.407" fill="#95a5a5" stroke-width="0"/>
    <rect x="390.425" y="333.206" width=".718" height="3.407" fill="#95a5a5" stroke-width="0"/>
    <rect x="383.689" y="333.206" width=".718" height="3.407" fill="#95a5a5" stroke-width="0"/>
    <rect x="410.368" y="333.206" width=".718" height="3.407" fill="#95a5a5" stroke-width="0"/>
    <rect x="416.84" y="333.206" width=".718" height="3.407" fill="#95a5a5" stroke-width="0"/>
    <rect x="423.31" y="333.206" width=".718" height="4.183" fill="#95a5a5" stroke-width="0"/>
    <rect x="429.782" y="333.206" width=".718" height="4.183" fill="#95a5a5" stroke-width="0"/>
  </g>
  <path d="M386.6,388.192c.048-.168.016-.36-.116-.499-.365-.384-.872-.31-1.332-.176-.606.176-1.211.359-1.815.543-.615.187-1.226.385-1.839.579-.038.001-.073-.005-.114.006-.534.137-1.069.271-1.604.406-.027.003-.055-.007-.082,0-.086.016-.163.057-.246.083-.703.175-1.41.338-2.118.493-.178.036-.355.081-.533.122-1.164.243-2.385.372-3.513.767-7.648,1.339-15.294,2.69-22.93,4.091-.173.032-.273.129-.323.249-.086.012-.173.023-.259.036-.637.092-1.277.174-1.904.321-.024.006-.041.022-.063.031-.595.035-1.187.105-1.77.229-.503-.003-1.008.059-1.496.181-1.948.244-3.899.464-5.854.635-3.5.306-7.006.526-10.513.745-.012,0-.023-.007-.035-.007-.927.019-1.85.084-2.772.173-.7-.024-1.414-.106-2.093.092-.271.079-.364.309-.34.527-.02.084-.028.17-.007.247.078.286.347.39.615.349.472-.072.948-.115,1.422-.167.482-.018.964-.035,1.446-.053.373-.01.746-.022,1.119-.034.156-.005.324-.009.482-.032,2.282.722,4.693.735,7.064.604,2.718-.15,5.433-.337,8.152-.463,5.531-.256,11.067-.386,16.604-.388,2.962-.001,5.923.038,8.883.108.008.002.016.004.024.005-.028.012-.057.021-.085.034-.485.218-.198.91.252.932.757.036,1.508.013,2.261-.071.269-.03.417-.228.459-.441.067-.043.14-.078.204-.124-.073.348.168.749.576.581.982-.405,1.975-.807,2.875-1.378.933-.591,1.772-1.262,2.775-1.745,1.075-.518,2.196-.943,3.324-1.331.424-.146.846-.293,1.242-.484.143.049.279.114.424.156.652.189,1.432.413,2.102.189.71-.237,1.073-.938,1.3-1.6.288-.842.418-1.762.412-2.65-.004-.569-.018-1.299-.267-1.871Z" fill="#e0e0e0" stroke-width="0"/>
</svg>