<svg xmlns="http://www.w3.org/2000/svg" viewBox="0 0 500 500"><g id="freepik--background-complete--inject-64"><path d="M83.96,447.21l-.85,4.13c5.9,8.58,17.91,10.03,28.31,9.44,10.4-.59,21.53-2.26,30.67,2.74,.78,.42,1.6,.99,1.77,1.86,.16,.82-.32,1.61-.59,2.4-.86,2.54,.56,5.41,2.71,7,2.15,1.59,4.87,2.18,7.52,2.62,12.96,2.15,26.33,1.76,39.14-1.14,1.95-.44,4.3-1.35,4.07-3.66-.12-1.13-.86-2.1-1.85-2.66l-4.92-2.84c-2.52-1.45-1.56-5.29,1.34-5.41,9.39-.38,19.13,2.77,28.71,3.49,8.45,.63,17.04-.68,24.92-3.82,7.63-3.04,14.84-7.81,23.04-8.29,7.43-.44,14.53,2.73,21.8,4.31,11.22,2.43,23.25,.98,33.56-4.06,5.79-2.83,10.7-1.78,17.03-.56,14.27,2.75,47.45,7.39,56.58,5.13,4.22-1.04,22.72-7.8,25.34-10.66H83.96Zm95.79,26.49c-4.8,0-8.69-1.04-8.69-2.32s3.89-2.32,8.69-2.32,8.69,1.04,8.69,2.32-3.89,2.32-8.69,2.32Zm49.44-12.94c-4.48,0-8.11-.82-8.11-1.83s3.63-1.83,8.11-1.83,8.11,.82,8.11,1.83-3.63,1.83-8.11,1.83Z" style="fill:#e0e0e0;"></path><path d="M9.06,226.91c7.38-15.54,26.07-24.1,43.1-21.57,17.02,2.52,31.72,14.88,39.25,30.35,8.35-4.95,19.12-5.57,27.99-1.63,8.87,3.95,15.62,12.36,17.54,21.88,4.61-2.68,10.61-2.81,15.33-.33,4.72,2.48,8.02,7.49,8.43,12.81H11.55l-2.49-41.51Z" style="fill:#f5f5f5;"></path><path d="M213.57,267.02c4.89-10.17,17.7-15.44,28.06-11.55-3.01-24.22,12.41-49.54,34.91-57.31,22.5-7.77,49.64,2.83,61.46,24.01,2.47-34.69,21.99-61.44,40.89-77.12,23.46-19.45,46.09-18.55,46.09-18.55,0,0,1.94-19.1,21.84-29.5,12.12-6.34,33.32-7.04,41.32,4.27v167.36l-274.57-1.62Z" style="fill:#f5f5f5;"></path><path d="M104.23,105.45c-.78-2.08-1.57-4.18-2.88-5.97-1.31-1.79-3.22-3.26-5.42-3.53-2.2-.27-4.64,.92-5.36,3.02-.32-4.73-.99-9.58-3.35-13.69-2.37-4.11-6.78-7.33-11.51-7.04-4.46,.27-8.28,3.59-10.4,7.52-2.12,3.93-2.85,8.44-3.55,12.86-1.69-2.07-5.26-1.42-7.02,.59-1.76,2.01-2.21,4.82-2.59,7.47h53.22l-1.13-1.23Z" style="fill:#ebebeb;"></path><path d="M323.73,148.44c-2.17-5.8-4.39-11.67-8.04-16.67-3.65-5-8.99-9.09-15.13-9.84-6.14-.75-12.95,2.56-14.95,8.42-.88-13.2-2.75-26.74-9.36-38.2-6.61-11.46-18.93-20.46-32.13-19.65-12.45,.76-23.11,10.01-29.03,20.98-5.92,10.98-7.95,23.56-9.9,35.88-4.72-5.79-14.68-3.97-19.61,1.65-4.92,5.62-6.17,13.47-7.22,20.86l147.07,1.53-1.71-4.97Z" style="fill:#f5f5f5;"></path><path d="M421.24,189.65c-.56-1.49-1.13-2.99-2.06-4.28-.94-1.28-2.31-2.33-3.88-2.53-1.58-.19-3.32,.66-3.84,2.16-.23-3.39-.71-6.86-2.4-9.8-1.69-2.94-4.86-5.25-8.24-5.04-3.19,.2-5.93,2.57-7.45,5.38-1.52,2.82-2.04,6.05-2.54,9.21-1.21-1.49-3.77-1.02-5.03,.42-1.26,1.44-1.58,3.45-1.85,5.35l37.73,.39-.44-1.27Z" style="fill:#ebebeb;"></path><path d="M168.88,66.26c-.47-1.24-.94-2.5-1.72-3.57-.78-1.07-1.93-1.95-3.24-2.11-1.32-.16-2.77,.55-3.2,1.8-.19-2.83-.59-5.73-2-8.18-1.42-2.45-4.06-4.38-6.88-4.21-2.67,.16-4.95,2.14-6.22,4.49-1.27,2.35-1.7,5.05-2.12,7.69-1.01-1.24-3.15-.85-4.2,.35-1.05,1.2-1.32,2.88-1.55,4.47l31.51,.33-.37-1.06Z" style="fill:#f5f5f5;"></path><path d="M158.34,184.91c-.9-2.41-1.82-4.85-3.34-6.93-1.52-2.08-3.73-3.78-6.29-4.09-2.55-.31-5.38,1.07-6.21,3.5-.37-5.48-1.14-11.11-3.89-15.87-2.74-4.76-7.87-8.5-13.35-8.16-5.17,.32-9.6,4.16-12.06,8.72s-3.3,9.79-4.11,14.91c-1.96-2.41-6.1-1.65-8.15,.68-2.05,2.33-2.56,5.59-3,8.67l61.1,.64-.71-2.06Z" style="fill:#f5f5f5;"></path></g><g id="freepik--Water--inject-64"><path d="M467.46,268.43c0,.14-97.37,.26-217.45,.26s-217.47-.12-217.47-.26,97.35-.26,217.47-.26,217.45,.12,217.45,.26Z" style="fill:#263238;"></path><g><path d="M410.89,292.15c0,.14-67.58,.26-150.93,.26s-150.95-.12-150.95-.26,67.57-.26,150.95-.26,150.93,.12,150.93,.26Z" style="fill:#263238;"></path><path d="M261.98,298.83c0,.14-39.62,.26-88.48,.26s-88.49-.12-88.49-.26,39.61-.26,88.49-.26,88.48,.12,88.48,.26Z" style="fill:#263238;"></path><path d="M348.79,309.41c0,.14-27.5,.26-61.42,.26s-61.43-.12-61.43-.26,27.5-.26,61.43-.26,61.42,.12,61.42,.26Z" style="fill:#263238;"></path><path d="M324.76,465.72c0,.14-17.2,.26-38.41,.26s-38.42-.12-38.42-.26,17.2-.26,38.42-.26,38.41,.12,38.41,.26Z" style="fill:#263238;"></path><path d="M149.09,454.27c0,.14-17.2,.26-38.41,.26s-38.42-.12-38.42-.26,17.2-.26,38.42-.26,38.41,.12,38.41,.26Z" style="fill:#FF725E;"></path><path d="M402.82,451.3c0,.14-7.74,.26-17.29,.26s-17.29-.12-17.29-.26,7.74-.26,17.29-.26,17.29,.12,17.29,.26Z" style="fill:#FF725E;"></path><path d="M266.69,472.16c0,.14-5.77,.26-12.88,.26s-12.88-.12-12.88-.26,5.77-.26,12.88-.26,12.88,.12,12.88,.26Z" style="fill:#263238;"></path></g></g><g id="freepik--Sun--inject-64"><g><g><circle cx="366.69" cy="80.92" r="30.01" transform="translate(50.18 282.99) rotate(-45)" style="fill:#FF725E;"></circle><circle cx="366.69" cy="80.92" r="30.01" transform="translate(50.18 282.99) rotate(-45)" style="fill:#fff; opacity:.9;"></circle></g><g><circle cx="366.69" cy="80.92" r="26.76" transform="translate(-7.11 45.11) rotate(-6.97)" style="fill:#FF725E;"></circle><circle cx="366.69" cy="80.92" r="26.76" transform="translate(-7.11 45.11) rotate(-6.97)" style="fill:#fff; opacity:.6;"></circle></g><g><circle cx="366.69" cy="80.92" r="22.27" transform="translate(-8.2 59.36) rotate(-9.15)" style="fill:#FF725E;"></circle><circle cx="366.69" cy="80.92" r="22.27" transform="translate(-8.2 59.36) rotate(-9.15)" style="fill:#fff; opacity:.3;"></circle></g><path d="M384.52,80.92c0,9.85-7.98,17.83-17.83,17.83s-17.83-7.98-17.83-17.83,7.98-17.83,17.83-17.83,17.83,7.98,17.83,17.83Z" style="fill:#FF725E; fill-rule:evenodd;"></path></g></g><g id="freepik--Birds--inject-64"><g><path d="M116.94,135s-.63-.22-1.8-.48c-1.16-.26-2.91-.48-5.02-.19-2.1,.28-4.59,1.12-6.76,2.92-2.17,1.76-4.03,4.42-4.77,7.58l-.02,.08-.14,.54-.21-.51c-1.22-3-3.37-5.39-5.72-6.9-2.35-1.54-4.87-2.18-6.98-2.33-2.12-.15-3.84,.16-4.99,.46-1.15,.3-1.76,.57-1.77,.54,0-.01,.14-.08,.43-.21,.29-.13,.73-.29,1.3-.46,1.15-.34,2.88-.69,5.04-.58,2.14,.11,4.73,.74,7.15,2.3,2.41,1.54,4.63,3.97,5.87,7.05l-.35,.03,.02-.09c.76-3.25,2.68-5.97,4.92-7.76,2.24-1.82,4.8-2.66,6.94-2.91,2.16-.26,3.92,.01,5.09,.31,.59,.15,1.03,.3,1.32,.42,.29,.12,.45,.18,.44,.2Z" style="fill:#263238;"></path><path d="M167.13,110.23s-.35-.1-1-.23c-.64-.13-1.59-.24-2.75-.08-1.15,.16-2.5,.63-3.68,1.61-1.18,.96-2.19,2.41-2.59,4.13v.05l-.15,.54-.21-.51c-.66-1.63-1.84-2.93-3.11-3.76-1.28-.84-2.65-1.2-3.8-1.29-1.16-.09-2.1,.07-2.73,.22-.63,.16-.97,.29-.98,.26,0-.01,.07-.06,.23-.13,.16-.08,.4-.17,.71-.27,.63-.2,1.59-.4,2.79-.34,1.19,.06,2.63,.4,3.97,1.26,1.34,.85,2.57,2.2,3.27,3.91l-.35,.03v-.05c.44-1.81,1.5-3.32,2.75-4.31,1.25-1.01,2.67-1.47,3.86-1.6,1.2-.14,2.17,.02,2.81,.2,.32,.09,.57,.17,.73,.25,.16,.07,.24,.11,.24,.12Z" style="fill:#263238;"></path><path d="M134.32,98.96s-.34,.39-.96,1.09c-.62,.7-1.47,1.76-2.36,3.18-1.78,2.8-3.56,7.26-3.5,12.38v.16l-.36,.03c-.38-2.5-1.21-4.79-2.26-6.7-1.05-1.92-2.28-3.48-3.45-4.65-1.16-1.18-2.22-2.01-2.99-2.53-.76-.53-1.2-.79-1.19-.82,0-.01,.12,.05,.34,.16,.21,.12,.54,.28,.93,.54,.79,.49,1.89,1.3,3.09,2.47,1.2,1.17,2.47,2.73,3.56,4.67,1.09,1.94,1.94,4.27,2.33,6.81l-.36,.03v-.16c-.06-5.21,1.79-9.73,3.65-12.52,.92-1.42,1.81-2.46,2.47-3.14,.32-.35,.6-.58,.78-.76,.18-.17,.28-.25,.29-.24Z" style="fill:#263238;"></path></g></g><g id="freepik--Boat--inject-64"><g><g><path d="M121.01,356c.13,.05-.44,1.92-1.44,4.11-1,2.19-2.03,3.85-2.15,3.78-.13-.07,.69-1.83,1.68-4,.99-2.17,1.78-3.94,1.91-3.89Z" style="fill:#263238;"></path><g><path d="M128.5,391.96v-.5l-.48-.11c.04-.25,.03-2.28,0-5.16,0-.25,.1-.49,.29-.68,.3-.31,.82-.49,1.39-.49h58.98v1h-58.98c-.42,0-.66,.15-.69,.21,.08,5.36,.05,5.39-.14,5.58l-.15,.15h-.21Z" style="fill:#455a64;"></path><rect x="133.96" y="385.52" width="1" height="5.98" style="fill:#455a64;"></rect><rect x="140.37" y="385.52" width="1" height="5.98" style="fill:#455a64;"></rect><rect x="146.77" y="385.52" width="1" height="5.98" style="fill:#455a64;"></rect><rect x="153.18" y="385.52" width="1" height="5.98" style="fill:#455a64;"></rect><rect x="159.59" y="385.52" width="1" height="5.98" style="fill:#455a64;"></rect><rect x="165.99" y="385.52" width="1" height="5.98" style="fill:#455a64;"></rect><rect x="172.4" y="385.52" width="1" height="5.98" style="fill:#455a64;"></rect><rect x="178.8" y="385.52" width="1" height="5.98" style="fill:#455a64;"></rect></g><path d="M102.31,397.97c-.13-.06,2.87-7.28,6.71-16.13,3.84-8.85,7.06-15.98,7.19-15.93,.13,.06-2.87,7.28-6.71,16.13-3.84,8.85-7.06,15.98-7.19,15.93Z" style="fill:#263238;"></path><g><path d="M122.79,396.06l3.38-4.62h54.28l10.23-13.99c1-1.37,2.59-2.18,4.29-2.18h51.97l15.32,23.64-139.46-2.84Z" style="fill:#e0e0e0;"></path><polygon points="249.42 379.11 213.77 379.37 212.07 393.69 258.92 393.69 249.42 379.11" style="fill:#455a64;"></polygon><g style="opacity:.3;"><polygon points="241.19 379.17 214.93 393.69 222.69 393.69 247.79 379.13 241.19 379.17" style="fill:#fff;"></polygon></g><g style="opacity:.3;"><polygon points="249.82 379.73 227.51 393.69 230.34 393.69 250.61 380.94 249.82 379.73" style="fill:#fff;"></polygon></g></g><g style="opacity:.3;"><polygon points="247.63 376.35 247.63 397.59 251.15 397.59 250.9 381.43 247.63 376.35"></polygon></g><path d="M252.03,399.63c-.13-.07,3.06-6.41,7.12-14.17,4.06-7.76,7.46-14,7.59-13.93,.13,.07-3.06,6.41-7.12,14.18-4.06,7.76-7.46,14-7.59,13.93Z" style="fill:#263238;"></path><g><polygon points="249.89 363.85 241.98 363.85 240.53 365.8 249.89 376.35 249.89 363.85" style="fill:#e0e0e0;"></polygon><path d="M249.89,363.85s.04,.29,.06,.87c.02,.68,.04,1.54,.07,2.56,.05,2.21,.1,5.37,.12,9.06v.65l-.43-.49c-1.23-1.38-2.57-2.89-3.97-4.45-1.93-2.19-3.75-4.25-5.38-6.1l-.13-.14,.11-.15c.51-.68,1-1.32,1.47-1.94l.07-.09h.11c2.44,.02,4.44,.07,5.81,.11,1.37,.04,2.12,.07,2.09,.1-.02,.02-.23,.03-.6,.05-.45,.02-.98,.03-1.62,.05-1.39,.04-3.33,.09-5.68,.11l.17-.09c-.46,.62-.93,1.28-1.43,1.96v-.29c1.63,1.84,3.46,3.89,5.4,6.07,1.39,1.57,2.72,3.08,3.95,4.47l-.43,.16c.02-3.59,.07-6.68,.12-8.9,.03-1.05,.05-1.92,.07-2.62,.02-.62,.04-.96,.06-.98Z" style="fill:#263238;"></path></g><path d="M112.25,382.91c20.86,3.68,42.23,4.36,63.28,1.95,5.94-.68,11.85-1.61,17.71-2.76,.79-.16,.45-1.36-.33-1.21-20.52,4.05-41.59,5.14-62.42,3.22-6-.55-11.97-1.36-17.91-2.41-.79-.14-1.12,1.07-.33,1.21h0Z" style="fill:#ae7461;"></path><path d="M117.42,391.8c19.41,3.71,39.36,4.42,58.98,2.01,5.46-.67,10.9-1.58,16.28-2.72,.79-.17,.45-1.37-.33-1.21-19.07,4.02-38.72,5.08-58.12,3.12-5.53-.56-11.03-1.37-16.48-2.42-.79-.15-1.12,1.05-.33,1.21h0Z" style="fill:#ae7461;"></path><path d="M193.38,382.34c20.2,3.61,40.81,4.01,61.16,1.42,5.72-.73,11.4-1.67,17.06-2.8,.79-.16,.45-1.36-.33-1.21-19.76,3.94-39.96,5.48-60.05,3.72-5.87-.51-11.7-1.3-17.5-2.34-.79-.14-1.12,1.06-.33,1.21h0Z" style="fill:#ae7461;"></path><path d="M193.57,391.82c20.25,3.87,41.22,4.41,61.68,1.99,5.61-.66,11.18-1.56,16.7-2.72,.79-.17,.45-1.37-.33-1.21-19.91,4.2-40.61,5.1-60.85,3.14-5.66-.55-11.29-1.35-16.87-2.41-.79-.15-1.12,1.05-.33,1.21h0Z" style="fill:#ae7461;"></path><path d="M270.48,380.8c19.19,3.38,38.75,3.96,58.12,1.85,4.75-.52,9.48-1.19,14.19-1.99,1.22-.21,2.43-.42,3.65-.65,.57-.11,1.14-.21,1.71-.32,.33-.06,.85-.3,1.14-.28,.16,0,.38,.14,.54,.19,3.14,1,6.57,1.25,9.85,1.24,8.41-.03,16.7-2.2,24.47-5.28,.74-.29,.42-1.5-.33-1.21-7.13,2.83-14.68,4.89-22.38,5.2-3.62,.14-7.38-.03-10.88-1.04-.27-.08-.55-.21-.82-.26-.91-.16-1.98,.26-2.89,.43-4.85,.91-9.72,1.69-14.62,2.31-9.49,1.19-19.06,1.78-28.63,1.68-10.99-.11-21.96-1.15-32.78-3.06-.79-.14-1.12,1.07-.33,1.21h0Z" style="fill:#ae7461;"></path><path d="M270.87,390.87c17.61,3.2,35.71,3.84,53.53,2.3,4.37-.38,8.72-.89,13.05-1.55,2.24-.34,4.48-.72,6.71-1.15,.99-.19,1.99-.39,2.98-.59,.65-.14,1.35-.4,1.97-.43,1.12-.04,2.35,.27,3.47,.36,2.49,.2,4.98,.31,7.47,.31,6.25-.01,13.52-.42,18.89-3.99,.67-.44,.04-1.53-.63-1.08-4.8,3.2-11.19,3.69-16.8,3.81-4.05,.09-8.13-.12-12.15-.61-.1-.01-.36-.01-.12-.01-.74,0-1.5,.25-2.23,.41-2.06,.43-4.13,.83-6.2,1.19-4.4,.76-8.83,1.36-13.28,1.81-8.87,.9-17.81,1.23-26.73,1.01-9.93-.25-19.84-1.19-29.62-2.97-.79-.14-1.12,1.06-.33,1.21h0Z" style="fill:#ae7461;"></path><g style="opacity:.3;"><path d="M190.76,397.59h0c-.41,0-.74-.33-.74-.74v-15.75c0-.41,.33-.74,.74-.74h0c.41,0,.74,.33,.74,.74v15.75c0,.41-.33,.74-.74,.74Z"></path></g><g><path d="M191.5,379.81v19.29c0,1.32,2.04,1.32,2.04,0v-19.29c0-1.32-2.04-1.32-2.04,0h0Z" style="fill:#e0e0e0;"></path><path d="M191.5,379.81s-.06-.16,.05-.47c.1-.29,.53-.69,1.16-.61,.3,.03,.65,.21,.84,.56,.19,.38,.11,.77,.14,1.17,.01,.82,.02,1.74,.04,2.74,.05,4.07,.08,9.69,.08,15.89,.02,.47-.3,.99-.76,1.15-.44,.17-.95,.12-1.34-.17-.42-.27-.49-.89-.46-1.22,0-.37,0-.74,0-1.11,0-1.46,.01-2.87,.02-4.22,.02-2.67,.04-5.08,.06-7.14,.03-1.97,.06-3.59,.08-4.82,.03-1.14,.07-1.77,.1-1.77s.07,.63,.1,1.77c.02,1.22,.05,2.85,.08,4.82,.02,2.06,.03,4.48,.06,7.14,0,1.35,0,2.76,.02,4.22,0,.37,0,.73,0,1.11-.01,.4,.03,.62,.26,.81,.22,.17,.56,.21,.83,.1,.28-.11,.43-.36,.43-.66,0-6.21,.03-11.82,.08-15.89,.01-1,.03-1.92,.04-2.74,0-.41,.06-.8-.07-1.06-.13-.27-.39-.43-.65-.47-.53-.09-.92,.21-1.04,.45-.13,.26-.11,.42-.14,.42Z" style="fill:#263238;"></path></g><g><path d="M270.15,379.5v19.29c0,1.32,2.04,1.32,2.04,0v-19.29c0-1.32-2.04-1.32-2.04,0h0Z" style="fill:#e0e0e0;"></path><path d="M270.15,379.5s-.06-.16,.05-.47c.1-.29,.53-.69,1.16-.61,.3,.03,.65,.21,.84,.56,.19,.38,.11,.77,.14,1.17,.01,.82,.02,1.74,.04,2.74,.05,4.07,.08,9.69,.08,15.89,.02,.47-.3,.99-.76,1.15-.44,.17-.95,.12-1.34-.17-.42-.27-.49-.89-.46-1.22,0-.37,0-.74,0-1.11,0-1.46,.01-2.87,.02-4.22,.02-2.67,.04-5.08,.06-7.14l.08-4.82c.03-1.14,.07-1.77,.1-1.77s.07,.63,.1,1.77c.02,1.22,.05,2.85,.08,4.82,.02,2.06,.03,4.48,.06,7.14,0,1.35,0,2.76,.02,4.22,0,.37,0,.74,0,1.11-.01,.4,.03,.62,.26,.81,.22,.17,.56,.21,.83,.1,.28-.11,.43-.36,.43-.66,0-6.21,.03-11.82,.08-15.89,.01-1,.03-1.92,.04-2.74,0-.41,.06-.8-.07-1.06-.13-.27-.39-.43-.65-.47-.53-.09-.92,.21-1.04,.45-.13,.26-.11,.42-.14,.42Z" style="fill:#263238;"></path></g><g><path d="M348.81,375.93v19.29c0,1.32,2.04,1.32,2.04,0v-19.29c0-1.32-2.04-1.32-2.04,0h0Z" style="fill:#e0e0e0;"></path><path d="M348.81,375.93s-.06-.16,.05-.47c.1-.29,.53-.69,1.16-.61,.3,.03,.65,.21,.84,.56,.19,.38,.11,.77,.14,1.17,.01,.82,.02,1.74,.04,2.74,.05,4.07,.08,9.69,.08,15.89,.02,.47-.3,.99-.76,1.15-.44,.17-.95,.12-1.34-.17-.42-.27-.49-.89-.46-1.22,0-.37,0-.74,0-1.11,0-1.46,.01-2.87,.02-4.22,.02-2.67,.04-5.08,.06-7.14,.03-1.97,.06-3.59,.08-4.82,.03-1.14,.07-1.77,.1-1.77s.07,.63,.1,1.77c.02,1.22,.05,2.85,.08,4.82,.02,2.06,.03,4.48,.06,7.14,0,1.35,0,2.76,.02,4.22,0,.37,0,.74,0,1.11-.01,.4,.03,.62,.26,.81,.22,.17,.56,.21,.83,.1,.28-.11,.43-.36,.43-.66,0-6.21,.03-11.82,.08-15.89,.01-1,.03-1.92,.04-2.74,0-.41,.06-.8-.07-1.06-.13-.27-.39-.43-.65-.47-.53-.09-.92,.21-1.04,.45-.13,.26-.11,.42-.14,.42Z" style="fill:#263238;"></path></g><path d="M94.73,398.82s9.34,21.14,25.69,36.3c8.43,7.81,19.56,12.03,31.05,12.03l187.17-.02c9.72,.3,19.37-2.31,27.39-7.81,3.47-2.38,6.79-5.39,9.32-9.14,8.99-13.36,28.78-39.06,29.81-39.32,1.03-.26-114.36,11.05-199.42,9.25-66.03-1.4-111.02-1.29-111.02-1.29Z" style="fill:#e0e0e0;"></path><g><g><rect x="97.38" y="387.78" width="18.55" height="1.77" style="fill:#e0e0e0;"></rect><path d="M115.93,389.55s-.03-.18-.05-.48c-.02-.36-.04-.78-.06-1.28l.11,.11c-3.13,.09-10.26,.15-18.55,.15h0c.52-.52,.14-.14,.26-.26h0v.9c0,.3,0,.59,0,.87l-.26-.26c5.15,0,9.74,.06,13.09,.11l3.97,.08c.94,.02,1.47,.05,1.5,.07,.02,.02-.46,.05-1.37,.07-1.01,.02-2.32,.05-3.91,.08-3.33,.05-8.02,.11-13.28,.11h-.26v-.26c0-.28,0-.57,0-.87v-.87h0v-.02h0c.12-.12-.26,.25,.26-.27h0c8.29,0,15.42,.06,18.55,.15h.11v.11c-.02,.6-.04,1.05-.06,1.35-.02,.29-.03,.44-.05,.42Z" style="fill:#263238;"></path></g><g><path d="M120.63,399.08l-10.7-20.22c-.28-.53-.83-.86-1.43-.86h-8.61c-.89,0-1.62,.73-1.62,1.62v18.95h-1.77v-18.95c0-1.87,1.52-3.39,3.39-3.39h8.61c1.26,0,2.41,.69,3,1.81l10.7,20.22-1.56,.83Z" style="fill:#e0e0e0;"></path><path d="M120.63,399.08s.13-.09,.38-.23c.28-.16,.65-.37,1.15-.65l-.03,.08c-1.47-2.65-4.94-9.1-9.67-17.97-.3-.55-.6-1.12-.9-1.69-.3-.59-.6-1.12-1.11-1.5-.49-.39-1.11-.63-1.75-.67-.68,0-1.38,0-2.08,0-1.41,0-2.86,0-4.34,0-.74,0-1.49,0-2.25,0-.73-.02-1.43,.18-2.01,.62-.58,.42-1.01,1.05-1.19,1.76-.17,.69-.07,1.52-.1,2.31,0,1.6,0,3.23,0,4.88,0,3.31,0,6.7,0,10.17,0,.8,0,1.61,0,2.35l-.26-.26c.63,0,1.21,0,1.77,0l-.26,.26c0-3.83,0-7.56,0-11.15,0-1.8,0-3.56,0-5.28,0-.86,0-1.72,0-2.56,0-.99,.88-1.84,1.84-1.82,1.64,0,3.24,0,4.8,.01,.78,0,1.54,0,2.29,0,.38,0,.75,0,1.12,0,.35,0,.79-.02,1.17,.16,.38,.17,.69,.46,.87,.82,.16,.31,.33,.63,.49,.93,.32,.62,.64,1.22,.95,1.82,.62,1.19,1.21,2.33,1.78,3.41,2.25,4.34,4.07,7.86,5.35,10.32,.62,1.2,1.1,2.15,1.45,2.83,.15,.31,.28,.55,.37,.75,.08,.17,.12,.26,.12,.27,0,0-.05-.07-.14-.22-.1-.18-.23-.41-.39-.7-.36-.66-.86-1.58-1.5-2.74-1.32-2.45-3.2-5.94-5.53-10.26-.59-1.09-1.2-2.24-1.84-3.43-.32-.6-.65-1.21-.98-1.83l-.5-.94c-.15-.28-.39-.5-.68-.63-.29-.14-.61-.12-1-.12-.37,0-.74,0-1.12,0-.75,0-1.52,0-2.29,0-1.55,0-3.15,0-4.79,.01-.71-.01-1.37,.63-1.36,1.36,0,.84,0,1.69,0,2.55,0,1.72,0,3.48,0,5.28,0,3.59,0,7.32,0,11.15v.26h-.26c-.56,0-1.14,0-1.77,0h-.26v-.26c0-.74,0-1.55,0-2.35,0-3.47,0-6.87,0-10.17,0-1.65,0-3.28,0-4.88,0-.4,0-.8,0-1.2,0-.38,0-.83,.12-1.24,.2-.82,.71-1.55,1.38-2.04,.66-.5,1.51-.73,2.3-.7,.76,0,1.51,0,2.25,0,1.48,0,2.93,0,4.34,0,.71,0,1.41,0,2.11,.01,.73,.05,1.43,.33,1.99,.77,.57,.43,.94,1.09,1.21,1.65,.3,.57,.6,1.14,.89,1.7,4.67,8.9,8.05,15.4,9.41,18.1l.03,.06-.05,.03c-.52,.26-.92,.46-1.21,.6-.26,.13-.38,.18-.38,.17Z" style="fill:#263238;"></path></g></g><g><g><rect x="379.99" y="381.83" width="18.55" height="1.77" style="fill:#e0e0e0;"></rect><path d="M379.99,383.6s-.03-.13-.05-.42c-.02-.29-.04-.75-.06-1.35v-.1h.11c3.13-.09,10.26-.16,18.55-.16h0c.52,.52,.14,.14,.26,.26h0v.9c0,.3,0,.59,0,.87v.26h-.26c-5.26,0-9.94-.06-13.28-.11-1.59-.03-2.9-.06-3.91-.08-.91-.02-1.39-.05-1.37-.07,.02-.02,.56-.05,1.5-.07,1.02-.02,2.36-.05,3.97-.08,3.34-.05,7.93-.11,13.09-.11l-.26,.26c0-.28,0-.57,0-.87v-.87h0v-.02h0c.12,.11-.26-.27,.26,.25h0c-8.29,0-15.42-.06-18.55-.15l.11-.11c-.02,.51-.04,.93-.06,1.28-.02,.3-.03,.47-.05,.48Z" style="fill:#263238;"></path></g><g><path d="M375.3,393.13l10.7-20.22c.28-.53,.83-.86,1.43-.86h8.61c.89,0,1.62,.73,1.62,1.62v18.95h1.77v-18.95c0-1.87-1.52-3.39-3.39-3.39h-8.61c-1.26,0-2.41,.69-3,1.81l-10.7,20.22,1.56,.83Z" style="fill:#e0e0e0;"></path><path d="M375.3,393.13s-.12-.05-.38-.17c-.29-.15-.69-.34-1.21-.6l-.05-.03,.03-.06c1.36-2.7,4.75-9.2,9.41-18.1,.29-.56,.59-1.12,.89-1.7,.28-.56,.64-1.22,1.21-1.65,.56-.44,1.26-.72,1.99-.77,.69,0,1.39,0,2.11-.01,1.41,0,2.86,0,4.34,0,.74,0,1.49,0,2.25,0,.79-.03,1.64,.21,2.3,.7,.67,.48,1.17,1.21,1.38,2.04,.11,.4,.12,.86,.12,1.24v1.2c0,1.6,0,3.23,0,4.88,0,3.31,0,6.7,0,10.17,0,.79,0,1.58,0,2.35v.26h-.26c-.6,0-1.2,0-1.77,0h-.26v-.26c0-3.83,0-7.56,0-11.15,0-1.8,0-3.56,0-5.28,0-.86,0-1.71,0-2.55,0-.73-.65-1.37-1.36-1.36-1.64,0-3.24,0-4.79-.01-.78,0-1.54,0-2.29,0-.38,0-.75,0-1.12,0-.39,0-.7-.02-1,.12-.29,.13-.53,.35-.68,.63-.17,.32-.34,.63-.5,.94-.33,.62-.66,1.23-.98,1.83-.64,1.19-1.25,2.34-1.84,3.43-2.33,4.32-4.21,7.81-5.53,10.26-.64,1.17-1.14,2.09-1.5,2.74-.16,.29-.29,.52-.39,.7-.09,.15-.14,.23-.14,.22,0,0,.04-.1,.12-.27,.1-.19,.22-.44,.37-.75,.35-.68,.83-1.62,1.45-2.82,1.28-2.46,3.1-5.97,5.35-10.32,.57-1.09,1.16-2.23,1.78-3.41,.31-.59,.63-1.2,.95-1.82,.16-.31,.32-.62,.49-.93,.19-.36,.5-.65,.87-.82,.38-.19,.82-.16,1.17-.16,.37,0,.74,0,1.12,0,.75,0,1.52,0,2.29,0,1.55,0,3.15,0,4.8-.01,.96-.02,1.84,.83,1.84,1.82,0,.84,0,1.7,0,2.56,0,1.72,0,3.48,0,5.28,0,3.59,0,7.32,0,11.15l-.26-.26c.56,0,1.14,0,1.77,0l-.26,.26c0-.74,0-1.55,0-2.35,0-3.47,0-6.87,0-10.17,0-1.65,0-3.28,0-4.88-.03-.79,.08-1.62-.1-2.31-.17-.71-.61-1.34-1.19-1.76-.58-.43-1.28-.64-2.01-.62-.76,0-1.51,0-2.25,0-1.48,0-2.93,0-4.34,0-.7,0-1.39,0-2.08,0-.64,.04-1.26,.28-1.75,.67-.51,.39-.81,.91-1.11,1.5-.31,.57-.61,1.14-.9,1.69-4.73,8.86-8.2,15.32-9.67,17.97l-.03-.08c.5,.28,.87,.49,1.15,.65,.25,.15,.38,.22,.38,.23Z" style="fill:#263238;"></path></g></g><g><path d="M116.1,366.48c-.59,.17-.38,.04-.1,.04,.24,0,.47-.01,.71-.01,.87-.01,1.73-.02,2.6-.03,3.09-.02,6.17-.03,9.26-.03,10.01-.02,20.03-.02,30.04-.01,12,0,24.01,.02,36.01,.03,10.35,.01,20.7,.03,31.05,.05,5.02,0,10.06,.18,15.07,.03,.07,0,.14,0,.21,0,1.97,0,1.98-3.06,0-3.07-4.15,0-8.31-.02-12.46-.02-9.94-.02-19.89-.03-29.83-.05-12.03-.02-24.07-.03-36.1-.04-10.42,0-20.85,0-31.27,0-3.46,0-6.92,.01-10.38,.03-1.65,0-3.32-.04-4.97,.05-.22,.01-.44,.01-.65,.07-1.9,.53-1.09,3.49,.82,2.96h0Z" style="fill:#e0e0e0;"></path><path d="M116.1,366.48s-.22,.11-.67,.07c-.44-.04-1.14-.49-1.26-1.41-.06-.44,.06-.99,.49-1.37,.44-.38,1.09-.4,1.71-.41,1.27-.02,2.74-.04,4.39-.07,6.62-.03,16.16-.07,27.95-.12,23.62,0,56.21,.01,92.22,.02,.63-.03,1.35,.36,1.59,.98,.27,.59,.23,1.3-.12,1.86-.17,.29-.46,.5-.76,.62-.3,.13-.67,.13-.91,.13l-1.67,.04c-2.23,.04-4.44,.02-6.63,0-4.39-.07-8.7-.07-12.95-.08-8.49-.02-16.68-.03-24.48-.05-15.6-.03-29.65-.06-41.46-.09-11.79-.03-21.33-.05-27.95-.06-3.29,0-5.84-.01-7.6-.01-.86,0-1.51,0-1.98,0-.1-.02-.22,.05-.27,0,.07,0,.15-.02,.2-.03,.11-.02,.17-.03,.17-.03,0,0-.05,.02-.16,.06-.06,.01-.12,.04-.21,.05,.05-.11,.17-.07,.28-.09,.46-.01,1.12-.03,1.98-.05,1.76-.02,4.31-.05,7.6-.08,6.62-.02,16.16-.06,27.95-.1,11.81,0,25.86-.02,41.46-.02,7.8,0,15.99,.01,24.48,.02,4.24,0,8.57,0,12.95,.07,2.19,.02,4.4,.04,6.62,0l1.67-.04c.56,.02,.99-.11,1.25-.52,.25-.38,.29-.94,.08-1.36-.18-.44-.63-.68-1.12-.68-36-.07-68.6-.13-92.21-.18-11.79-.02-21.33-.04-27.95-.05-1.65,0-3.11,.02-4.38,.02-.63,0-1.23,.02-1.64,.35-.39,.34-.52,.84-.47,1.26,.1,.87,.75,1.31,1.17,1.37,.44,.06,.66-.05,.66-.02Z" style="fill:#263238;"></path></g><path d="M249.62,363.85c-.11,.13-2.29-1.65-4.73-4.1-1.13-1.13-2.16-2.15-3.12-3.12-.79-.8-1.29-1.29-1.24-1.35,.11-.13,2.29,1.65,4.73,4.1,1.13,1.13,2.15,2.15,3.12,3.12,.79,.8,1.29,1.29,1.24,1.35Z" style="fill:#263238;"></path><path d="M249.62,32.72c.14,.04-.85,4.14-2.21,9.16-1.36,5.02-2.58,9.06-2.71,9.02s.85-4.14,2.21-9.16c1.36-5.02,2.58-9.06,2.71-9.02Z" style="fill:#263238;"></path><g><path d="M249.62,28.43V400.02c0,1.97,3.07,1.98,3.07,0V28.43c0-1.97-3.07-1.98-3.07,0h0Z" style="fill:#e0e0e0;"></path><path d="M249.62,28.43s0-.04,0-.12c.01-.08,0-.21,.06-.36,.08-.3,.37-.8,1.02-.96,.31-.08,.7-.09,1.08,.05,.38,.14,.75,.47,.88,.95,.11,.48,.05,.99,.07,1.55,0,.55,0,1.14,0,1.77,.01,5.02,.03,12.41,.05,21.93,.02,19.05,.05,46.61,.08,80.66,.02,68.11,.05,162.19,.08,266.11,0,.45-.17,.96-.53,1.29-.36,.33-.84,.48-1.3,.47-.46,0-.94-.18-1.28-.52-.35-.34-.49-.85-.48-1.29,0-1.62,0-3.24,0-4.85,0-3.23,0-6.45,0-9.66,0-6.42,0-12.79,0-19.12,0-12.65,0-25.12,0-37.37,0-24.5,.01-48.14,.02-70.65,.02-45.03,.04-85.58,.06-119.63,.03-34.05,.06-61.6,.08-80.65,.02-9.52,.04-16.91,.05-21.93,.01-2.5,.02-4.41,.03-5.7,0-1.28,.03-1.94,.03-1.94,0,0,.02,.66,.03,1.94,0,1.29,.01,3.2,.03,5.7,.01,5.02,.03,12.41,.05,21.93,.02,19.05,.05,46.6,.08,80.65,.02,34.06,.03,74.61,.06,119.63,0,22.52,0,46.15,.02,70.65,0,12.25,0,24.72,0,37.37,0,6.33,0,12.7,0,19.12v14.51c-.05,.74,.53,1.29,1.25,1.29,.72,.04,1.33-.52,1.3-1.24,.03-103.91,.06-197.99,.08-266.11,.03-34.05,.06-61.61,.08-80.66,.02-9.52,.04-16.91,.05-21.93,0-.63,0-1.22,0-1.77-.02-.55,.05-1.08-.05-1.53-.12-.45-.46-.77-.82-.91-.36-.14-.74-.14-1.04-.06-.63,.15-.93,.62-1.01,.92-.09,.31-.07,.48-.09,.48Z" style="fill:#263238;"></path></g><path d="M363.48,393.69s-.11-.26-.31-.78c-.2-.53-.49-1.3-.87-2.3-.76-2.04-1.86-5.01-3.29-8.85-2.84-7.7-6.93-18.83-11.99-32.57-10.08-27.53-23.99-65.55-39.35-107.54-15.28-42.04-29.11-80.09-39.12-107.64-4.95-13.78-8.95-24.94-11.73-32.67-1.35-3.86-2.4-6.86-3.12-8.91-.33-1.02-.59-1.79-.77-2.33-.17-.53-.24-.79-.24-.79,.49,1.34,6.25,17.19,16.21,44.58,10.05,27.54,23.93,65.57,39.26,107.59,15.31,42.01,29.17,80.04,39.21,107.59,5,13.77,9.04,24.91,11.84,32.63,1.38,3.85,2.46,6.84,3.19,8.88,.36,1.01,.63,1.78,.82,2.31,.18,.52,.26,.79,.26,.79Z" style="fill:#263238;"></path><path d="M400.13,391.07s-.15-.31-.41-.92c-.27-.62-.66-1.53-1.16-2.71-1.02-2.4-2.51-5.91-4.43-10.44-3.83-9.08-9.35-22.21-16.18-38.42-13.61-32.47-32.41-77.32-53.18-126.84-20.67-49.59-39.39-94.47-52.93-126.97-6.71-16.26-12.14-29.42-15.9-38.53-1.84-4.55-3.28-8.09-4.25-10.51-.47-1.21-.84-2.12-1.07-2.75-.22-.63-.32-.95-.32-.95,0,0,.14,.32,.37,.93,.26,.63,.63,1.54,1.12,2.73,1,2.4,2.46,5.93,4.34,10.47,3.8,9.09,9.28,22.23,16.06,38.47,13.59,32.49,32.35,77.35,53.08,126.91,20.71,49.55,39.46,94.41,53.03,126.9,6.77,16.24,12.24,29.39,16.03,38.48,1.88,4.54,3.34,8.07,4.34,10.47,.49,1.19,.86,2.1,1.12,2.73,.25,.62,.36,.94,.36,.94Z" style="fill:#263238;"></path><polygon points="354.92 370.79 266.2 370.27 260.53 108.2 354.92 370.79" style="fill:#2CA58D;"></polygon><g><path d="M161.88,414.89h-17.49c-2.02,0-3.66-1.64-3.66-3.66h0c0-2.02,1.64-3.66,3.66-3.66h17.49c2.02,0,3.66,1.64,3.66,3.66h0c0,2.02-1.64,3.66-3.66,3.66Z" style="fill:#455a64;"></path><g style="opacity:.3;"><path d="M144.9,414.89l11.68-7.32h5.62c.34,.02,.66,.09,.95,.19l-11.07,7.14h-7.18Z" style="fill:#fff;"></path></g><g style="opacity:.3;"><path d="M154.88,414.89l9.44-6.48c.23,.2,.44,.43,.62,.69l-8.72,5.79h-1.34Z" style="fill:#fff;"></path></g></g><path d="M405.92,392.91s.58-.24,.6-.25c.75-.36,1.27-1.34,1.24-2.16h0c-.05-1.1-.74-2.12-1.84-2.41-.81-.22-1.78,0-2.6,.06-1.87,.16-3.75,.33-5.62,.49-6.9,.6-13.81,1.17-20.72,1.72-22.58,1.8-45.18,3.34-67.79,4.55-27.59,1.48-55.23,2.5-82.86,2.54-15.12,.02-30.24-.41-45.36-.67-14.11-.24-28.21-.44-42.32-.58-14.41-.14-28.85-.46-43.27-.23-.19,0-.38,0-.57,0-3.22,0-3.22,5.01,0,5,11.69-.03,23.39,.06,35.08,.15,28.85,.24,57.7,1.04,86.54,1.29,27.49,.24,54.99-.63,82.45-1.97,23.71-1.16,47.4-2.7,71.07-4.52,7.79-.6,15.58-1.23,23.37-1.9,3.79-.32,7.61-.53,11.38-.98,.52-.06,.87,.14-.11-.12-.61-.8-1.22-1.61-1.84-2.41h0c.41-.72,.83-1.44,1.24-2.16,.2-.08,.39-.17,.59-.25-3.09,.89-1.77,5.72,1.33,4.82h0Z" style="fill:#2CA58D;"></path><g><path d="M106.18,418.63c3.86,5.49,8.62,11.37,14.21,16.55,.25,.23,.51,.45,.77,.68,83.85,2.21,166.97,2.22,249.33-.05,1.78-1.64,3.44-3.49,4.84-5.58,3.13-4.66,7.58-10.81,12.08-16.86-46.24,7.56-242.88,7.6-281.24,5.26Z" style="fill:#455a64;"></path><path d="M124.22,438.33c7.84,5.78,17.4,8.88,27.23,8.88l187.17-.02c9.72,.3,19.37-2.31,27.39-7.81,.58-.4,1.15-.81,1.71-1.24-79.4,2.67-163.19,2.78-243.5,.2Z" style="fill:#2CA58D;"></path><path d="M121.16,435.86c.99,.87,2,1.7,3.06,2.47,80.31,2.58,164.1,2.47,243.5-.2,.95-.72,1.87-1.5,2.77-2.32-82.36,2.27-165.47,2.26-249.33,.05Z" style="fill:#fff;"></path></g><path d="M120.31,356.54h121.37c-21.02-85.13-8.06-191.08,4.18-309.58-68.86,106.69-116.14,210.59-125.55,309.58Z" style="fill:#2CA58D;"></path><path d="M195.62,263.69s-.11,.26-.38,.72l-1.17,2.02c-1.01,1.75-2.55,4.24-4.52,7.27-1.96,3.04-4.4,6.59-7.22,10.46-2.84,3.85-6.06,8.01-9.6,12.25-3.56,4.23-7.09,8.13-10.39,11.59-3.32,3.45-6.39,6.47-9.04,8.94-2.64,2.47-4.83,4.42-6.37,5.72-.74,.63-1.34,1.13-1.78,1.5-.41,.34-.63,.51-.64,.5-.01-.01,.19-.21,.57-.58,.43-.39,1-.92,1.71-1.57,1.5-1.35,3.65-3.34,6.25-5.84,2.61-2.49,5.65-5.54,8.94-9,3.27-3.48,6.79-7.38,10.34-11.6,3.53-4.23,6.76-8.37,9.61-12.2,2.83-3.85,5.3-7.37,7.3-10.38,2.01-3,3.59-5.46,4.66-7.18,.52-.82,.94-1.47,1.25-1.96,.29-.45,.45-.68,.47-.67Z" style="fill:#263238;"></path><path d="M193.6,303.4s-.33,.39-.99,1.03c-.66,.64-1.63,1.53-2.86,2.62-2.45,2.17-5.94,5.05-9.98,7.99-4.04,2.94-7.84,5.39-10.65,7.07-1.4,.84-2.55,1.49-3.36,1.93-.81,.43-1.26,.66-1.28,.63-.02-.03,.4-.32,1.17-.8,.86-.54,1.95-1.23,3.27-2.06,2.76-1.75,6.52-4.24,10.54-7.17,4.02-2.94,7.54-5.76,10.04-7.85,1.19-1,2.19-1.84,2.96-2.49,.7-.59,1.1-.9,1.12-.87Z" style="fill:#263238;"></path><g><path d="M266.2,372.31h87.9c1.46,0,1.46-2.04,0-2.04h-87.9c-1.46,0-1.46,2.04,0,2.04h0Z" style="fill:#e0e0e0;"></path><path d="M266.2,372.31s-.04,0-.12,0c-.08,0-.2-.01-.35-.06-.29-.08-.75-.49-.66-1.15,.04-.31,.26-.66,.64-.81,.38-.14,.8-.08,1.24-.1,.89,0,1.92-.01,3.07-.02,4.64-.02,11.32-.05,19.56-.08,16.53-.02,39.33-.05,64.52-.08,.45-.01,.99,.22,1.21,.68,.23,.44,.19,1-.12,1.39-.29,.43-.88,.51-1.26,.5h-1.17c-1.56,0-3.1,0-4.63,0-3.07,0-6.09,0-9.06,0-5.94,0-11.67-.01-17.13-.02-10.91-.02-20.74-.04-29.01-.06-8.24-.03-14.91-.06-19.55-.08-2.29-.02-4.08-.04-5.32-.05-.59-.01-1.05-.02-1.38-.03-.31,0-.47-.03-.47-.03,0,0,.16-.02,.47-.03,.33,0,.79-.01,1.38-.03,1.24-.01,3.03-.03,5.32-.05,4.64-.02,11.32-.05,19.55-.08,8.26-.02,18.09-.03,29.01-.06,5.46,0,11.19-.01,17.13-.02,2.97,0,5.99,0,9.06,0,1.53,0,3.08,0,4.63,0h1.17c.38,0,.67-.05,.85-.3,.18-.22,.21-.58,.07-.83-.13-.26-.42-.4-.75-.4-25.18-.03-47.99-.06-64.52-.08-8.24-.03-14.91-.06-19.56-.08-1.15,0-2.18-.02-3.07-.02-.44,0-.87-.05-1.2,.07-.33,.13-.53,.43-.58,.71-.1,.6,.3,.99,.58,1.08,.29,.11,.46,.08,.45,.11Z" style="fill:#263238;"></path></g><path d="M331.86,350.8s-.21-.02-.59-.1c-.44-.1-.99-.23-1.68-.38-.73-.16-1.62-.38-2.63-.71-1.01-.32-2.18-.63-3.43-1.13-.63-.23-1.28-.48-1.97-.73-.68-.26-1.37-.59-2.09-.9-1.46-.6-2.94-1.39-4.52-2.19-3.11-1.7-6.41-3.77-9.65-6.27-3.21-2.53-6.04-5.22-8.44-7.82-1.16-1.33-2.29-2.58-3.23-3.85-.48-.63-.96-1.21-1.38-1.81-.41-.6-.81-1.18-1.19-1.73-.78-1.08-1.38-2.14-1.93-3.05-.57-.9-1-1.71-1.33-2.38-.32-.62-.58-1.13-.78-1.53-.17-.35-.26-.54-.24-.55,.02,0,.13,.17,.33,.5,.23,.39,.51,.88,.86,1.48,.36,.65,.82,1.44,1.4,2.32,.58,.89,1.19,1.93,1.99,2.99,.39,.54,.79,1.11,1.21,1.7,.42,.59,.92,1.16,1.4,1.78,.95,1.25,2.08,2.48,3.24,3.79,2.41,2.56,5.22,5.23,8.41,7.74,3.21,2.48,6.48,4.55,9.55,6.26,1.56,.81,3.03,1.61,4.47,2.22,.71,.32,1.39,.65,2.07,.92,.67,.26,1.32,.52,1.94,.76,1.23,.52,2.39,.85,3.39,1.2,1,.35,1.87,.6,2.59,.79,.67,.19,1.22,.35,1.65,.48,.38,.11,.57,.18,.57,.2Z" style="fill:#263238;"></path><g style="opacity:.3;"><path d="M264.09,289.44s6.05,63.98,25.05,70.12c15.4,4.99,64.42,10.7,64.42,10.7h-87.37l-2.1-80.83Z"></path></g><g style="opacity:.3;"><path d="M120.51,356.54s42.95-1.91,67.42-16.24c24.47-14.32,42.61-88.79,42.61-88.79,1.49,35.57,3.7,73.14,11.14,105.02H120.51Z"></path></g><path d="M363.48,396.21s-14.5,1.7-38.06,3.08c-23.56,1.4-56.15,2.39-92.15,2.69-36.01,.24-68.61-.11-92.2-.56-11.8-.22-21.34-.45-27.93-.64-3.28-.1-5.84-.18-7.59-.23-.86-.03-1.51-.06-1.97-.07-.44-.02-.67-.04-.67-.04,0,0,.23-.01,.67-.01,.46,0,1.12,.01,1.98,.02,1.75,.03,4.31,.07,7.59,.13,6.61,.11,16.15,.27,27.93,.47,23.59,.36,56.18,.66,92.19,.41,35.99-.3,68.57-1.23,92.13-2.54,2.95-.14,5.75-.29,8.4-.48,2.65-.18,5.15-.34,7.49-.5,2.34-.16,4.51-.3,6.51-.44,2-.17,3.82-.33,5.47-.47,3.27-.27,5.82-.49,7.57-.63,.85-.07,1.51-.12,1.97-.15,.44-.03,.67-.03,.67-.03Z" style="fill:#263238;"></path><g><path d="M180.99,412.55c-.5,2.01-2.53,3.24-4.55,2.75s-3.24-2.53-2.75-4.55,2.53-3.24,4.55-2.75c2.01,.5,3.24,2.53,2.75,4.55Z" style="fill:#455a64;"></path><g style="opacity:.3;"><path d="M178.72,408.16l-5.14,3.38c-.04,.17-.02,1.56,.91,2.56l6.12-4.29s-.68-1.24-1.89-1.66Z" style="fill:#fff;"></path></g></g><g><circle cx="190.08" cy="411.65" r="3.76" style="fill:#455a64;"></circle><g style="opacity:.3;"><path d="M192.58,408.85l-5.96,4.27s.37,.81,.62,.98l6.12-4.29s-.32-.63-.78-.96Z" style="fill:#fff;"></path></g></g><path d="M203.59,375.87c.08-.38,4.56-5.57,5.7-5.77,1.13-.2,20.57,1.61,22,2.22,1.44,.6,3.48,3.55,3.48,3.55h-31.18Z" style="fill:#e0e0e0;"></path><path d="M243.6,375.26c0,.14-11.05,.26-24.67,.26s-24.67-.12-24.67-.26,11.04-.26,24.67-.26,24.67,.12,24.67,.26Z" style="fill:#263238;"></path><g style="opacity:.3;"><path d="M117.59,400.78s82.84,4.06,136.35,3.36c66.55-.86,122.96-8.92,122.96-8.92,0,0-84.72,7.11-139.42,6.28-54.7-.83-119.9-.72-119.9-.72Z"></path></g></g><path d="M389.69,447.21c0,.14-66.03,.26-147.47,.26s-147.48-.12-147.48-.26,66.02-.26,147.48-.26,147.47,.12,147.47,.26Z" style="fill:#263238;"></path></g></g></svg>
