<?xml version="1.0" encoding="UTF-8"?>
<svg id="Layer_1" data-name="Layer 1" xmlns="http://www.w3.org/2000/svg" width="479.2" height="426.645" viewBox="0 0 479.2 426.645">
  <g id="freepik--background-complete--inject-64">
    <path d="M56.639,395.184l-.928,4.1c6.029,8.6,18.436,10,29.103,9.4s22.146-2.3,31.538,2.7c.812.4,1.623,1,1.855,1.9.116.8-.348,1.6-.58,2.4-.928,2.5.58,5.4,2.783,7s4.986,2.2,7.769,2.6c13.334,2.1,27.132,1.8,40.234-1.1,1.971-.4,4.406-1.4,4.174-3.7-.116-1.1-.928-2.1-1.855-2.7l-5.102-2.8c-2.551-1.5-1.623-5.3,1.391-5.4,9.624-.4,19.711,2.8,29.567,3.5,8.696.6,17.508-.7,25.625-3.8,7.884-3,15.305-7.8,23.653-8.3,7.653-.4,14.957,2.7,22.378,4.3,11.595,2.4,23.885,1,34.553-4.1,5.913-2.8,11.015-1.8,17.508-.6,14.725,2.8,48.814,7.4,58.206,5.1,4.29-1,23.422-7.8,26.088-10.7H56.639v.2ZM167.717,421.684c-5.566,0-10.088-1-10.088-2.3s4.522-2.3,10.088-2.3,10.088,1,10.088,2.3-4.522,2.3-10.088,2.3ZM225.112,408.784c-5.218,0-9.392-.8-9.392-1.8s4.174-1.8,9.392-1.8,9.392.8,9.392,1.8-4.174,1.8-9.392,1.8Z" fill="#e0e0e0" stroke-width="0"/>
    <path d="M.1,176.914c7.4-15.5,26.1-24.1,43.1-21.6s31.7,14.9,39.3,30.4c8.3-4.9,19.1-5.6,28-1.6,8.9,3.9,15.6,12.4,17.5,21.9,4.6-2.7,10.6-2.8,15.3-.3,4.7,2.5,8,7.5,8.4,12.8H2.5l-2.5-41.5h0l.1-.1Z" fill="#f5f5f5" stroke-width="0"/>
    <path d="M204.6,217.014c4.9-10.2,17.7-15.4,28.1-11.6-3-24.2,12.4-49.5,34.9-57.3s49.6,2.8,61.5,24c2.5-34.7,22-61.4,40.9-77.1,23.5-19.4,46.1-18.6,46.1-18.6,0,0,1.9-19.1,21.8-29.5,12.1-6.3,33.3-7,41.3,4.3v167.4l-274.6-1.6h0Z" fill="#f5f5f5" stroke-width="0"/>
    <path d="M95.2,55.414c-.8-2.1-1.6-4.2-2.9-6s-3.2-3.3-5.4-3.5-4.6.9-5.4,3c-.3-4.7-1-9.6-3.3-13.7-2.4-4.1-6.8-7.3-11.5-7-4.5.3-8.3,3.6-10.4,7.5s-2.8,8.4-3.5,12.9c-1.7-2.1-5.3-1.4-7,.6-1.8,2-2.2,4.8-2.6,7.5h53.2l-1.1-1.2h0l-.1-.1Z" fill="#ebebeb" stroke-width="0"/>
    <path d="M314.7,98.414c-2.2-5.8-4.4-11.7-8-16.7s-9-9.1-15.1-9.8-13,2.6-15,8.4c-.9-13.2-2.8-26.7-9.4-38.2s-18.9-20.5-32.1-19.7c-12.4.8-23.1,10-29,21s-7.9,23.6-9.9,35.9c-4.7-5.8-14.7-4-19.6,1.6-4.9,5.6-6.2,13.5-7.2,20.9l147.1,1.5-1.7-5h0l-.1.1Z" fill="#f5f5f5" stroke-width="0"/>
    <path d="M412.2,139.614c-.6-1.5-1.1-3-2.1-4.3-.9-1.3-2.3-2.3-3.9-2.5s-3.3.7-3.8,2.2c-.2-3.4-.7-6.9-2.4-9.8s-4.9-5.2-8.2-5c-3.2.2-5.9,2.6-7.5,5.4-1.5,2.8-2,6.1-2.5,9.2-1.2-1.5-3.8-1-5,.4s-1.6,3.4-1.9,5.4l37.7.4-.4-1.3h0v-.1Z" fill="#ebebeb" stroke-width="0"/>
    <path d="M159.9,16.314c-.5-1.2-.9-2.5-1.7-3.6s-1.9-2-3.2-2.1c-1.3-.2-2.8.5-3.2,1.8-.2-2.8-.6-5.7-2-8.2S145.7-.186,142.9.014c-2.7.2-4.9,2.1-6.2,4.5-1.3,2.3-1.7,5-2.1,7.7-1-1.2-3.1-.8-4.2.3-1.1,1.2-1.3,2.9-1.6,4.5l31.5.3-.4-1.1h0v.1Z" fill="#f5f5f5" stroke-width="0"/>
    <path d="M149.3,134.914c-.9-2.4-1.8-4.9-3.3-6.9-1.5-2.1-3.7-3.8-6.3-4.1s-5.4,1.1-6.2,3.5c-.4-5.5-1.1-11.1-3.9-15.9-2.7-4.8-7.9-8.5-13.3-8.2-5.2.3-9.6,4.2-12.1,8.7s-3.3,9.8-4.1,14.9c-2-2.4-6.1-1.6-8.2.7s-2.6,5.6-3,8.7l61.1.6-.7-2.1h0v.1Z" fill="#f5f5f5" stroke-width="0"/>
  </g>
  <g id="freepik--Water--inject-64">
    <path d="M457.1,219.414c0,.1-97.4.3-217.4.3s-217.5-.1-217.5-.3,97.3-.3,217.5-.3,217.4.1,217.4.3Z" fill="#263238" stroke-width="0"/>
    <g>
      <path d="M400.5,243.114c0,.1-67.6.3-150.9.3s-150.9-.1-150.9-.3,67.6-.3,150.9-.3,150.9.1,150.9.3Z" fill="#263238" stroke-width="0"/>
      <path d="M251.6,249.814c0,.1-39.6.3-88.5.3s-88.5-.1-88.5-.3,39.6-.3,88.5-.3,88.5.1,88.5.3Z" fill="#263238" stroke-width="0"/>
      <path d="M338.4,260.414c0,.1-27.5.3-61.4.3s-61.4-.1-61.4-.3,27.5-.3,61.4-.3,61.4.1,61.4.3h0Z" fill="#263238" stroke-width="0"/>
      <path d="M314.4,416.714c0,.1-17.2.3-38.4.3s-38.4-.1-38.4-.3,17.2-.3,38.4-.3,38.4.1,38.4.3Z" fill="#263238" stroke-width="0"/>
      <path d="M138.7,405.314c0,.1-17.2.3-38.4.3s-38.4-.1-38.4-.3,17.2-.3,38.4-.3,38.4.1,38.4.3Z" fill="#ff725e" stroke-width="0"/>
      <path d="M392.4,402.314c0,.1-7.7.3-17.3.3s-17.3-.1-17.3-.3,7.7-.3,17.3-.3,17.3.1,17.3.3Z" fill="#ff725e" stroke-width="0"/>
      <path d="M256.3,423.214c0,.1-5.8.3-12.9.3s-12.9-.1-12.9-.3,5.8-.3,12.9-.3,12.9.1,12.9.3Z" fill="#263238" stroke-width="0"/>
    </g>
  </g>
  <g id="freepik--Sun--inject-64">
    <g>
      <g>
        <circle cx="356.3" cy="31.914" r="30" fill="#ff725e" stroke-width="0"/>
        <circle cx="356.3" cy="31.914" r="30" fill="#fff" isolation="isolate" opacity=".9" stroke-width="0"/>
      </g>
      <g>
        <circle cx="356.3" cy="31.914" r="26.8" fill="#ff725e" stroke-width="0"/>
        <circle cx="356.3" cy="31.914" r="26.8" fill="#fff" isolation="isolate" opacity=".6" stroke-width="0"/>
      </g>
      <g>
        <circle cx="356.28" cy="32.2" r="22.3" transform="translate(-.608 56.754) rotate(-9.1)" fill="#ff725e" stroke-width="0"/>
        <circle cx="356.28" cy="32.2" r="22.3" transform="translate(-.608 56.754) rotate(-9.1)" fill="#fff" isolation="isolate" opacity=".3" stroke-width="0"/>
      </g>
      <path d="M374.1,31.914c0,9.8-8,17.8-17.8,17.8s-17.8-8-17.8-17.8,8-17.8,17.8-17.8,17.8,8,17.8,17.8Z" fill="#ff725e" fill-rule="evenodd" stroke-width="0"/>
    </g>
  </g>
  <g id="freepik--Birds--inject-64">
    <g>
      <path d="M106.5,86.014s-.6-.2-1.8-.5c-1.2-.3-2.9-.5-5-.2s-4.6,1.1-6.8,2.9c-2.2,1.8-4,4.4-4.8,7.6h0l-.1.6-.2-.5c-1.2-3-3.4-5.4-5.7-6.9-2.3-1.5-4.9-2.2-7-2.3s-3.8.2-5,.5-1.8.6-1.8.5c0,0,.1,0,.4-.2s.7-.3,1.3-.5c1.2-.3,2.9-.7,5-.6,2.1.1,4.7.7,7.2,2.3,2.4,1.5,4.6,4,5.9,7.1h-.3c.8-3.2,2.7-6,4.9-7.8,2.2-1.8,4.8-2.7,6.9-2.9,2.2-.3,3.9,0,5.1.3.6.1,1,.3,1.3.4s.4.2.4.2h.1Z" fill="#263238" stroke-width="0"/>
      <path d="M156.7,61.214s-.4,0-1-.2c-.6-.1-1.6-.2-2.8,0-1.1.2-2.5.6-3.7,1.6s-2.2,2.4-2.6,4.1h0l-.1.6-.2-.5c-.7-1.6-1.8-2.9-3.1-3.8-1.3-.8-2.6-1.2-3.8-1.3-1.2,0-2.1,0-2.7.2-.6.2-1,.3-1,.3l.2-.1c.2,0,.4-.2.7-.3.6-.2,1.6-.4,2.8-.3,1.2,0,2.6.4,4,1.3,1.3.8,2.6,2.2,3.3,3.9h-.4c.4-1.8,1.5-3.3,2.8-4.3,1.2-1,2.7-1.5,3.9-1.6s2.2,0,2.8.2c.3,0,.6.2.7.2.2,0,.2.1.2.1h0v-.1Z" fill="#263238" stroke-width="0"/>
      <path d="M123.9,50.014s-.3.4-1,1.1c-.6.7-1.5,1.8-2.4,3.2-1.8,2.8-3.6,7.3-3.5,12.4v.2h-.4c-.4-2.5-1.2-4.8-2.3-6.7-1.1-1.9-2.3-3.5-3.4-4.7-1.2-1.2-2.2-2-3-2.5s-1.2-.8-1.2-.8c0,0,.1,0,.3.2.2.1.5.3.9.5.8.5,1.9,1.3,3.1,2.5s2.5,2.7,3.6,4.7c1.1,1.9,1.9,4.3,2.3,6.8h-.4v-.1c0-5.2,1.8-9.7,3.7-12.5.9-1.4,1.8-2.5,2.5-3.1.3-.3.6-.6.8-.8.2-.2.3-.2.3-.2h0l.1-.2Z" fill="#263238" stroke-width="0"/>
    </g>
  </g>
  <g>
    <polygon points="226.745 226.931 161.319 226.931 161.319 235.387 242.664 235.387 226.745 226.931" fill="#0A2342" stroke-width="0"/>
    <polygon points="149.449 226.931 183.623 272.444 225.365 275.541 163.268 226.931 149.449 226.931" fill="#95a5a5" stroke-width="0"/>
    <rect x="149.307" y="218.158" width="13.858" height="8.773" fill="#fff" stroke-width="0"/>
    <polygon points="267.414 275.128 204.572 275.128 204.572 259.261 278.576 259.261 267.414 275.128" fill="#95a5a5" stroke-width="0"/>
    <path d="M326.202,298.659l-55.337-23.531-170.288-9.083,41.213,32.614h19.165c-15.749,12.525-26.424,36.742-26.424,36.742h299.855c3.148-11.479-45.685-26.457-108.183-36.742Z" fill="#fff" stroke-width="0"/>
    <path d="M97.019,338.003l-2.722,3.006-40.898-67.441c-.615-1.015-.504-2.509.247-3.339h0c.752-.83,1.859-.682,2.475.333l40.898,67.441Z" fill="#7b8891" stroke-width="0"/>
    <polygon points="85.917 332.51 457.473 332.51 403.804 395.054 55.643 395.054 46.965 383.341 46.965 370.284 85.917 332.51" fill="#0A2342" stroke-width="0"/>
    <polygon points="403.804 382.024 55.643 382.024 46.967 370.311 46.967 383.341 55.643 395.054 403.804 395.054 457.473 332.51 446.292 332.51 403.804 382.024" fill="#0A2342" isolation="isolate" opacity=".3" stroke-width="0"/>
    <path d="M273.76,352.636c0,3.078-1.848,5.573-4.128,5.573s-4.128-2.495-4.128-5.573,1.848-5.573,4.128-5.573,4.128,2.495,4.128,5.573Z" fill="#95a5a5" stroke-width="0"/>
    <path d="M317.506,352.636c0,3.078-1.848,5.573-4.128,5.573s-4.128-2.495-4.128-5.573,1.848-5.573,4.128-5.573,4.128,2.495,4.128,5.573Z" fill="#95a5a5" stroke-width="0"/>
    <ellipse cx="402.705" cy="354.315" rx="4.128" ry="5.573" fill="#95a5a5" stroke-width="0"/>
    <rect x="158.738" y="349.85" width="13.303" height="3.715" fill="#484a49" stroke-width="0"/>
    <rect x="158.738" y="357.28" width="9.06" height="2.632" fill="#484a49" stroke-width="0"/>
    <rect x="181.101" y="350.392" width="29.587" height="2.632" fill="#484a49" stroke-width="0"/>
    <rect x="178.233" y="356.894" width="29.587" height="2.632" fill="#484a49" stroke-width="0"/>
    <polyline points="226.751 280.853 246.081 296.298 300.373 297.364 269.632 282.579 226.751 280.853" fill="#88d2db" stroke-width="0"/>
    <polygon points="187.407 280.358 206.738 295.803 232.202 296.337 216.221 281.551 187.407 280.358" fill="#88d2db" stroke-width="0"/>
    <polygon points="454.993 335.401 82.938 335.401 85.917 332.51 457.473 332.51 454.993 335.401" fill="#0A2342" isolation="isolate" opacity=".3" stroke-width="0"/>
    <g>
      <path d="M154.265,376.521l-107.496,6.465c-2.748.164-5.042-2.797-5.042-6.508h0c0-3.711,2.294-6.674,5.042-6.508l107.496,6.465v.086Z" fill="#fea228" stroke-width="0"/>
      <path d="M154.265,376.434l-107.496-6.465c-2.748-.164-5.042,2.797-5.042,6.508h112.537v-.043h.002Z" fill="#fff" isolation="isolate" opacity=".2" stroke-width="0"/>
    </g>
    <rect x="151.052" y="322.336" width="229.824" height="3.469" fill="#95a5a5" stroke-width="0"/>
    <rect x="151.052" y="315.29" width="224.291" height="3.469" fill="#95a5a5" stroke-width="0"/>
    <path d="M359.967,304.949l-205.65-.08c2.047-2.201,4.235-4.276,6.582-6.21h165.305c11.112,1.812,22.371,3.917,33.763,6.29Z" fill="#e0d5bf" isolation="isolate" opacity=".45" stroke-width="0"/>
  </g>
</svg>